G04*
G04 #@! TF.GenerationSoftware,Altium Limited,Altium Designer,22.5.1 (42)*
G04*
G04 Layer_Physical_Order=4*
G04 Layer_Color=16711680*
%FSLAX25Y25*%
%MOIN*%
G70*
G04*
G04 #@! TF.SameCoordinates,C3C7CF66-0B5B-4541-851D-C3C27CC74C65*
G04*
G04*
G04 #@! TF.FilePolarity,Positive*
G04*
G01*
G75*
%ADD12C,0.00598*%
%ADD14C,0.00000*%
%ADD27R,0.04724X0.05512*%
%ADD28R,0.05512X0.04724*%
%ADD31C,0.02000*%
%ADD32C,0.01968*%
%ADD34C,0.04331*%
%ADD35O,0.04331X0.07284*%
%ADD36C,0.05906*%
%ADD37R,0.05906X0.05906*%
%ADD38R,0.05906X0.05906*%
%ADD39C,0.01772*%
%ADD48R,0.02559X0.05118*%
%ADD49R,0.01772X0.05315*%
%ADD50R,0.01575X0.05315*%
%ADD51R,0.03150X0.04331*%
G36*
X62683Y128844D02*
X64356Y128150D01*
X65863Y127144D01*
X67144Y125863D01*
X67884Y124756D01*
X67616Y124256D01*
X65661D01*
Y121500D01*
X68024D01*
Y123356D01*
X68524Y123456D01*
X68844Y122683D01*
X69197Y120906D01*
Y120000D01*
Y112844D01*
X68740Y112740D01*
X68697Y112740D01*
X61260D01*
Y105260D01*
X68697D01*
X68740Y105260D01*
X69197Y105156D01*
Y100503D01*
X68697Y100403D01*
X68453Y100993D01*
X67819Y101819D01*
X66993Y102453D01*
X66032Y102851D01*
X66000Y102855D01*
Y99000D01*
Y95145D01*
X66032Y95149D01*
X66993Y95547D01*
X67819Y96181D01*
X68453Y97007D01*
X68697Y97597D01*
X69197Y97497D01*
Y89604D01*
X68697Y89571D01*
X68644Y89976D01*
X68267Y90886D01*
X67668Y91667D01*
X66886Y92267D01*
X65976Y92644D01*
X65000Y92772D01*
X64024Y92644D01*
X63114Y92267D01*
X62332Y91667D01*
X61733Y90886D01*
X61356Y89976D01*
X61228Y89000D01*
X61356Y88024D01*
X61733Y87114D01*
X62332Y86332D01*
X63114Y85733D01*
X64024Y85356D01*
X65000Y85228D01*
X65976Y85356D01*
X66886Y85733D01*
X67668Y86332D01*
X68267Y87114D01*
X68644Y88024D01*
X68697Y88429D01*
X69197Y88396D01*
Y80503D01*
X68697Y80403D01*
X68453Y80993D01*
X67819Y81819D01*
X66993Y82453D01*
X66032Y82851D01*
X66000Y82855D01*
Y79000D01*
Y75145D01*
X66032Y75149D01*
X66993Y75547D01*
X67819Y76181D01*
X68453Y77007D01*
X68697Y77597D01*
X69197Y77497D01*
Y69604D01*
X68697Y69571D01*
X68644Y69976D01*
X68267Y70886D01*
X67668Y71667D01*
X66886Y72267D01*
X65976Y72644D01*
X65000Y72772D01*
X64024Y72644D01*
X63960Y72618D01*
X51082Y85495D01*
Y86413D01*
X51327D01*
Y89286D01*
X51827Y89335D01*
X51855Y89191D01*
X51924Y88847D01*
X52294Y88294D01*
X52847Y87924D01*
X53500Y87794D01*
X53961Y87886D01*
X54461Y87574D01*
Y86201D01*
X55740D01*
Y89760D01*
Y93319D01*
X54461D01*
Y91426D01*
X53961Y91114D01*
X53500Y91206D01*
X52847Y91076D01*
X52294Y90706D01*
X51924Y90153D01*
X51855Y89809D01*
X51827Y89665D01*
X51327Y89714D01*
Y93106D01*
X51082D01*
Y93894D01*
X55067D01*
Y95693D01*
X55813D01*
X56510Y95832D01*
X57101Y96227D01*
X57497Y96818D01*
X57635Y97516D01*
X57497Y98213D01*
X57101Y98804D01*
X56510Y99199D01*
X55813Y99338D01*
X55421D01*
X55067Y99692D01*
X55067Y100587D01*
X55476Y100807D01*
X58256D01*
Y103169D01*
X50744D01*
Y101008D01*
X50744Y100807D01*
X50933Y100385D01*
X50933Y100307D01*
Y97307D01*
X50433Y97144D01*
X48618Y98960D01*
X48644Y99024D01*
X48772Y100000D01*
X48644Y100976D01*
X48267Y101886D01*
X47668Y102667D01*
X46886Y103267D01*
X45976Y103644D01*
X45000Y103772D01*
X44024Y103644D01*
X43944Y103611D01*
X39956Y107599D01*
Y111366D01*
X39921Y111541D01*
Y114909D01*
X35303D01*
X35197Y114909D01*
X34803D01*
X34697Y114909D01*
X30079D01*
Y111558D01*
X30044Y111382D01*
X30044Y111382D01*
Y107621D01*
X26163Y103740D01*
X21260D01*
Y98837D01*
X20711Y98289D01*
X20316Y97697D01*
X20178Y97000D01*
X20178Y97000D01*
Y83480D01*
X19507D01*
X19134Y83787D01*
X19134Y83980D01*
Y90677D01*
X15984D01*
Y83980D01*
X15984Y83787D01*
X15611Y83480D01*
X14476D01*
Y89000D01*
X14337Y89697D01*
X14016Y90179D01*
Y90677D01*
X13361D01*
X13351Y90684D01*
X12653Y90822D01*
X8293D01*
X8267Y90886D01*
X7667Y91667D01*
X6886Y92267D01*
X5976Y92644D01*
X5000Y92772D01*
X4024Y92644D01*
X3114Y92267D01*
X2332Y91667D01*
X1733Y90886D01*
X1356Y89976D01*
X1303Y89571D01*
X803Y89604D01*
Y97497D01*
X1303Y97597D01*
X1547Y97007D01*
X2181Y96181D01*
X3007Y95547D01*
X3968Y95149D01*
X4000Y95145D01*
Y99000D01*
Y102855D01*
X3968Y102851D01*
X3007Y102453D01*
X2181Y101819D01*
X1547Y100993D01*
X1303Y100403D01*
X803Y100503D01*
Y105156D01*
X1260Y105260D01*
X1303Y105260D01*
X8740D01*
Y112740D01*
X1303D01*
X1260Y112740D01*
X803Y112844D01*
Y120000D01*
Y120906D01*
X1146Y122629D01*
X1307Y122852D01*
X1807Y122690D01*
Y121500D01*
X4169D01*
Y124256D01*
X2384D01*
X2116Y124756D01*
X2856Y125863D01*
X4137Y127144D01*
X5644Y128150D01*
X7317Y128844D01*
X9094Y129197D01*
X60906D01*
X62683Y128844D01*
D02*
G37*
G36*
X36343Y106850D02*
X36481Y106159D01*
X36872Y105573D01*
X41389Y101056D01*
X41356Y100976D01*
X41228Y100000D01*
X41356Y99024D01*
X41733Y98114D01*
X42333Y97333D01*
X43114Y96733D01*
X44024Y96356D01*
X45000Y96228D01*
X45976Y96356D01*
X46040Y96382D01*
X47437Y94985D01*
Y93322D01*
X42480D01*
Y95043D01*
X36181D01*
Y87957D01*
X37508D01*
Y87043D01*
X36181D01*
Y79957D01*
X37524D01*
Y78079D01*
X27252Y67806D01*
X9248D01*
X8689Y68366D01*
X8772Y69000D01*
X8644Y69976D01*
X8267Y70886D01*
X7667Y71667D01*
X6886Y72267D01*
X5976Y72644D01*
X5000Y72772D01*
X4024Y72644D01*
X3114Y72267D01*
X2332Y71667D01*
X1733Y70886D01*
X1356Y69976D01*
X1303Y69571D01*
X803Y69604D01*
Y77497D01*
X1303Y77597D01*
X1547Y77007D01*
X2181Y76181D01*
X3007Y75547D01*
X3968Y75149D01*
X4000Y75145D01*
Y79000D01*
Y82855D01*
X3968Y82851D01*
X3007Y82453D01*
X2181Y81819D01*
X1547Y80993D01*
X1303Y80403D01*
X803Y80503D01*
Y88396D01*
X1303Y88429D01*
X1356Y88024D01*
X1733Y87114D01*
X2332Y86332D01*
X3114Y85733D01*
X4024Y85356D01*
X5000Y85228D01*
X5976Y85356D01*
X6886Y85733D01*
X7667Y86332D01*
X8267Y87114D01*
X8293Y87178D01*
X10831D01*
Y83480D01*
X10457D01*
Y77181D01*
X17543D01*
Y78508D01*
X18457D01*
Y77181D01*
X25543D01*
Y83480D01*
X23822D01*
Y96245D01*
X23837Y96260D01*
X26777D01*
X26953Y96225D01*
X27129Y96260D01*
X28740D01*
Y97871D01*
X28775Y98047D01*
X28740Y98223D01*
Y101163D01*
X33155Y105578D01*
X33155Y105578D01*
X33550Y106169D01*
X33689Y106866D01*
X33689Y106866D01*
Y109004D01*
X34697D01*
X34803Y109004D01*
X35197D01*
X35303Y109004D01*
X36343D01*
Y106850D01*
D02*
G37*
G36*
X47193Y86413D02*
X47437D01*
Y84740D01*
X47437Y84740D01*
X47576Y84043D01*
X47971Y83451D01*
X61383Y70040D01*
X61356Y69976D01*
X61228Y69000D01*
X61356Y68024D01*
X61733Y67114D01*
X62332Y66333D01*
X63114Y65733D01*
X64024Y65356D01*
X65000Y65228D01*
X65976Y65356D01*
X66886Y65733D01*
X67668Y66333D01*
X68267Y67114D01*
X68644Y68024D01*
X68697Y68429D01*
X69197Y68396D01*
Y60503D01*
X68697Y60403D01*
X68453Y60993D01*
X67819Y61819D01*
X66993Y62453D01*
X66032Y62851D01*
X66000Y62855D01*
Y59000D01*
Y55145D01*
X66032Y55149D01*
X66993Y55547D01*
X67819Y56181D01*
X68453Y57007D01*
X68697Y57597D01*
X69197Y57497D01*
Y49604D01*
X68697Y49571D01*
X68644Y49976D01*
X68267Y50886D01*
X67668Y51667D01*
X66886Y52267D01*
X65976Y52644D01*
X65000Y52772D01*
X64024Y52644D01*
X63114Y52267D01*
X62332Y51667D01*
X61733Y50886D01*
X61356Y49976D01*
X61228Y49000D01*
X61356Y48024D01*
X61733Y47114D01*
X62332Y46332D01*
X63114Y45733D01*
X64024Y45356D01*
X65000Y45228D01*
X65976Y45356D01*
X66886Y45733D01*
X67668Y46332D01*
X68267Y47114D01*
X68644Y48024D01*
X68697Y48429D01*
X69197Y48396D01*
Y39604D01*
X68697Y39571D01*
X68644Y39976D01*
X68267Y40886D01*
X67668Y41668D01*
X66886Y42267D01*
X65976Y42644D01*
X65000Y42772D01*
X64024Y42644D01*
X63114Y42267D01*
X62332Y41668D01*
X61733Y40886D01*
X61356Y39976D01*
X61228Y39000D01*
X61356Y38024D01*
X61733Y37114D01*
X62332Y36332D01*
X63114Y35733D01*
X64024Y35356D01*
X65000Y35228D01*
X65976Y35356D01*
X66886Y35733D01*
X67668Y36332D01*
X68267Y37114D01*
X68644Y38024D01*
X68697Y38429D01*
X69197Y38396D01*
Y29604D01*
X68697Y29571D01*
X68644Y29976D01*
X68267Y30886D01*
X67668Y31668D01*
X66886Y32267D01*
X65976Y32644D01*
X65000Y32772D01*
X64024Y32644D01*
X63114Y32267D01*
X62332Y31668D01*
X61733Y30886D01*
X61356Y29976D01*
X61228Y29000D01*
X61356Y28024D01*
X61733Y27114D01*
X62332Y26333D01*
X63114Y25733D01*
X64024Y25356D01*
X65000Y25228D01*
X65976Y25356D01*
X66886Y25733D01*
X67668Y26333D01*
X68267Y27114D01*
X68644Y28024D01*
X68697Y28429D01*
X69197Y28396D01*
Y20503D01*
X68697Y20403D01*
X68453Y20993D01*
X67819Y21819D01*
X66993Y22453D01*
X66032Y22851D01*
X66000Y22855D01*
Y19000D01*
Y15145D01*
X66032Y15149D01*
X66993Y15547D01*
X67819Y16181D01*
X68453Y17007D01*
X68697Y17597D01*
X69197Y17497D01*
Y10000D01*
Y9094D01*
X68844Y7317D01*
X68151Y5644D01*
X67144Y4137D01*
X65863Y2856D01*
X64356Y1850D01*
X62683Y1156D01*
X60906Y803D01*
X9094D01*
X7317Y1156D01*
X5644Y1850D01*
X4137Y2856D01*
X2856Y4137D01*
X1850Y5644D01*
X1156Y7317D01*
X803Y9094D01*
Y10000D01*
Y17497D01*
X1303Y17597D01*
X1547Y17007D01*
X2181Y16181D01*
X3007Y15547D01*
X3968Y15149D01*
X4000Y15145D01*
Y19000D01*
Y22855D01*
X3968Y22851D01*
X3007Y22453D01*
X2181Y21819D01*
X1547Y20993D01*
X1303Y20403D01*
X803Y20503D01*
Y28396D01*
X1303Y28429D01*
X1356Y28024D01*
X1733Y27114D01*
X2332Y26333D01*
X3114Y25733D01*
X4024Y25356D01*
X5000Y25228D01*
X5976Y25356D01*
X6886Y25733D01*
X7667Y26333D01*
X8267Y27114D01*
X8644Y28024D01*
X8772Y29000D01*
X8644Y29976D01*
X8267Y30886D01*
X7667Y31668D01*
X6886Y32267D01*
X5976Y32644D01*
X5000Y32772D01*
X4024Y32644D01*
X3114Y32267D01*
X2332Y31668D01*
X1733Y30886D01*
X1356Y29976D01*
X1303Y29571D01*
X803Y29604D01*
Y38396D01*
X1303Y38429D01*
X1356Y38024D01*
X1733Y37114D01*
X2332Y36332D01*
X3114Y35733D01*
X4024Y35356D01*
X5000Y35228D01*
X5976Y35356D01*
X6886Y35733D01*
X7667Y36332D01*
X8267Y37114D01*
X8644Y38024D01*
X8772Y39000D01*
X8644Y39976D01*
X8267Y40886D01*
X7667Y41668D01*
X6886Y42267D01*
X5976Y42644D01*
X5000Y42772D01*
X4024Y42644D01*
X3114Y42267D01*
X2332Y41668D01*
X1733Y40886D01*
X1356Y39976D01*
X1303Y39571D01*
X803Y39604D01*
Y48396D01*
X1303Y48429D01*
X1356Y48024D01*
X1733Y47114D01*
X2332Y46332D01*
X3114Y45733D01*
X4024Y45356D01*
X5000Y45228D01*
X5976Y45356D01*
X6886Y45733D01*
X7667Y46332D01*
X8267Y47114D01*
X8644Y48024D01*
X8772Y49000D01*
X8644Y49976D01*
X8267Y50886D01*
X7667Y51667D01*
X6886Y52267D01*
X5976Y52644D01*
X5000Y52772D01*
X4024Y52644D01*
X3114Y52267D01*
X2332Y51667D01*
X1733Y50886D01*
X1356Y49976D01*
X1303Y49571D01*
X803Y49604D01*
Y57497D01*
X1303Y57597D01*
X1547Y57007D01*
X2181Y56181D01*
X3007Y55547D01*
X3968Y55149D01*
X4000Y55145D01*
Y59000D01*
Y62855D01*
X3968Y62851D01*
X3007Y62453D01*
X2181Y61819D01*
X1547Y60993D01*
X1303Y60403D01*
X803Y60503D01*
Y68396D01*
X1303Y68429D01*
X1356Y68024D01*
X1733Y67114D01*
X2332Y66333D01*
X3114Y65733D01*
X4024Y65356D01*
X5000Y65228D01*
X5976Y65356D01*
X6410Y65536D01*
X7223Y64723D01*
X7809Y64331D01*
X8500Y64194D01*
X28000D01*
X28691Y64331D01*
X29277Y64723D01*
X40608Y76053D01*
X41000Y76639D01*
X41137Y77331D01*
Y79957D01*
X42480D01*
Y87043D01*
X41153D01*
Y87957D01*
X42480D01*
Y89678D01*
X47193D01*
Y86413D01*
D02*
G37*
%LPC*%
G36*
X21827Y127488D02*
Y124000D01*
X24019D01*
Y124476D01*
X23911Y125303D01*
X23592Y126073D01*
X23084Y126734D01*
X22423Y127241D01*
X21827Y127488D01*
D02*
G37*
G36*
X48173D02*
X47577Y127241D01*
X46916Y126734D01*
X46408Y126073D01*
X46089Y125303D01*
X45981Y124476D01*
Y124000D01*
X48173D01*
Y127488D01*
D02*
G37*
G36*
X19827D02*
X19230Y127241D01*
X18569Y126734D01*
X18062Y126073D01*
X17743Y125303D01*
X17634Y124476D01*
Y124000D01*
X19827D01*
Y127488D01*
D02*
G37*
G36*
X8531Y124256D02*
X6169D01*
Y121500D01*
X8531D01*
Y124256D01*
D02*
G37*
G36*
X24019Y122000D02*
X21827D01*
Y118512D01*
X22423Y118759D01*
X23084Y119266D01*
X23592Y119927D01*
X23911Y120697D01*
X24019Y121524D01*
Y122000D01*
D02*
G37*
G36*
X48173D02*
X45981D01*
Y121524D01*
X46089Y120697D01*
X46408Y119927D01*
X46916Y119266D01*
X47577Y118759D01*
X48173Y118512D01*
Y122000D01*
D02*
G37*
G36*
X19827D02*
X17634D01*
Y121524D01*
X17743Y120697D01*
X18062Y119927D01*
X18569Y119266D01*
X19230Y118759D01*
X19827Y118512D01*
Y122000D01*
D02*
G37*
G36*
X68024Y119500D02*
X65661D01*
Y116744D01*
X68024D01*
Y119500D01*
D02*
G37*
G36*
X50173Y127488D02*
Y123000D01*
X49173D01*
D01*
X50173D01*
Y118512D01*
X50770Y118759D01*
X51431Y119266D01*
X51938Y119927D01*
X52257Y120697D01*
X52350Y121406D01*
X52850Y121373D01*
Y116957D01*
X59150D01*
Y119178D01*
X60500D01*
X60799Y119237D01*
X61299Y118829D01*
Y116744D01*
X63661D01*
Y120500D01*
Y124256D01*
X61299D01*
Y123171D01*
X60799Y122763D01*
X60500Y122822D01*
X59150D01*
Y124043D01*
X52866D01*
X52850Y124043D01*
X52366Y124081D01*
Y124476D01*
X52257Y125303D01*
X51938Y126073D01*
X51431Y126734D01*
X50770Y127241D01*
X50173Y127488D01*
D02*
G37*
G36*
X8531Y119500D02*
X6169D01*
Y116744D01*
X8531D01*
Y119500D01*
D02*
G37*
G36*
X4169D02*
X1807D01*
Y116744D01*
X4169D01*
Y119500D01*
D02*
G37*
G36*
X37362Y121996D02*
X32638D01*
Y120806D01*
X32000D01*
X31309Y120669D01*
X30723Y120277D01*
X30331Y119691D01*
X30194Y119000D01*
X30331Y118309D01*
X30723Y117723D01*
X31309Y117331D01*
X32000Y117194D01*
X32638D01*
Y116091D01*
X37362D01*
Y121996D01*
D02*
G37*
G36*
X45547Y115579D02*
Y113567D01*
X47559D01*
X47312Y114163D01*
X46805Y114824D01*
X46144Y115332D01*
X45547Y115579D01*
D02*
G37*
G36*
X26453D02*
Y113567D01*
X28465D01*
X28218Y114163D01*
X27710Y114824D01*
X27049Y115332D01*
X26453Y115579D01*
D02*
G37*
G36*
X24453D02*
X23856Y115332D01*
X23195Y114824D01*
X22688Y114163D01*
X22441Y113567D01*
X24453D01*
Y115579D01*
D02*
G37*
G36*
X43547D02*
X42951Y115332D01*
X42290Y114824D01*
X41782Y114163D01*
X41535Y113567D01*
X43547D01*
Y115579D01*
D02*
G37*
G36*
X14000Y126806D02*
X13309Y126669D01*
X12723Y126277D01*
X12331Y125691D01*
X12194Y125000D01*
Y124043D01*
X10681D01*
Y116957D01*
X11900D01*
X11957Y116480D01*
X11957Y116457D01*
Y110181D01*
X19043D01*
Y111194D01*
X20000D01*
X20691Y111331D01*
X21277Y111723D01*
X21669Y112309D01*
X21806Y113000D01*
X21669Y113691D01*
X21277Y114277D01*
X20691Y114669D01*
X20000Y114806D01*
X19043D01*
Y116480D01*
X17037D01*
X16980Y116957D01*
X16980Y116980D01*
Y118554D01*
X17015Y118728D01*
X16980Y118903D01*
Y124043D01*
X15806D01*
Y125000D01*
X15669Y125691D01*
X15277Y126277D01*
X14691Y126669D01*
X14000Y126806D01*
D02*
G37*
G36*
X58043Y115980D02*
X50957D01*
Y109681D01*
X58043D01*
Y111178D01*
X58500D01*
X59197Y111316D01*
X59789Y111711D01*
X60184Y112303D01*
X60322Y113000D01*
X60184Y113697D01*
X59789Y114289D01*
X59197Y114684D01*
X58500Y114822D01*
X58043D01*
Y115980D01*
D02*
G37*
G36*
X47559Y111567D02*
X45547D01*
Y109555D01*
X46144Y109802D01*
X46805Y110309D01*
X47312Y110971D01*
X47559Y111567D01*
D02*
G37*
G36*
X28465D02*
X26453D01*
Y109555D01*
X27049Y109802D01*
X27710Y110309D01*
X28218Y110971D01*
X28465Y111567D01*
D02*
G37*
G36*
X43547D02*
X41535D01*
X41782Y110971D01*
X42290Y110309D01*
X42951Y109802D01*
X43547Y109555D01*
Y111567D01*
D02*
G37*
G36*
X24453D02*
X22441D01*
X22688Y110971D01*
X23195Y110309D01*
X23856Y109802D01*
X24453Y109555D01*
Y111567D01*
D02*
G37*
G36*
X19256Y108031D02*
X16500D01*
Y105669D01*
X19256D01*
Y108031D01*
D02*
G37*
G36*
X14500D02*
X11744D01*
Y105669D01*
X14500D01*
Y108031D01*
D02*
G37*
G36*
X58256Y107531D02*
X55500D01*
Y105169D01*
X58256D01*
Y107531D01*
D02*
G37*
G36*
X53500D02*
X50744D01*
Y105169D01*
X53500D01*
Y107531D01*
D02*
G37*
G36*
X6000Y102855D02*
Y100000D01*
X8855D01*
X8851Y100032D01*
X8453Y100993D01*
X7819Y101819D01*
X6993Y102453D01*
X6032Y102851D01*
X6000Y102855D01*
D02*
G37*
G36*
X64000D02*
X63968Y102851D01*
X63007Y102453D01*
X62181Y101819D01*
X61547Y100993D01*
X61149Y100032D01*
X61145Y100000D01*
X64000D01*
Y102855D01*
D02*
G37*
G36*
X8855Y98000D02*
X6000D01*
Y95145D01*
X6032Y95149D01*
X6993Y95547D01*
X7819Y96181D01*
X8453Y97007D01*
X8851Y97968D01*
X8855Y98000D01*
D02*
G37*
G36*
X64000D02*
X61145D01*
X61149Y97968D01*
X61547Y97007D01*
X62181Y96181D01*
X63007Y95547D01*
X63968Y95149D01*
X64000Y95145D01*
Y98000D01*
D02*
G37*
G36*
X19256Y103669D02*
X11744D01*
Y101626D01*
X11223Y101277D01*
X10831Y100691D01*
X10694Y100000D01*
Y98500D01*
X10768Y98128D01*
Y92055D01*
X13114D01*
Y91843D01*
X14000D01*
Y92055D01*
X14114D01*
Y95500D01*
X15886D01*
Y92055D01*
X16000D01*
Y91843D01*
X16886D01*
Y92055D01*
X19232D01*
Y98128D01*
X19306Y98500D01*
Y100000D01*
X19169Y100691D01*
X19092Y100807D01*
X19256Y101307D01*
X19256D01*
X19256Y101307D01*
Y103669D01*
D02*
G37*
G36*
X59020Y93319D02*
X57740D01*
Y90760D01*
X59020D01*
Y93319D01*
D02*
G37*
G36*
Y88760D02*
X57740D01*
Y86201D01*
X59020D01*
Y88760D01*
D02*
G37*
G36*
X64000Y82855D02*
X63968Y82851D01*
X63007Y82453D01*
X62181Y81819D01*
X61547Y80993D01*
X61149Y80032D01*
X61145Y80000D01*
X64000D01*
Y82855D01*
D02*
G37*
G36*
Y78000D02*
X61145D01*
X61149Y77968D01*
X61547Y77007D01*
X62181Y76181D01*
X63007Y75547D01*
X63968Y75149D01*
X64000Y75145D01*
Y78000D01*
D02*
G37*
G36*
X35000Y103772D02*
X34024Y103644D01*
X33114Y103267D01*
X32333Y102667D01*
X31733Y101886D01*
X31356Y100976D01*
X31228Y100000D01*
X31356Y99024D01*
X31733Y98114D01*
X32333Y97333D01*
X33114Y96733D01*
X34024Y96356D01*
X35000Y96228D01*
X35976Y96356D01*
X36886Y96733D01*
X37668Y97333D01*
X38267Y98114D01*
X38644Y99024D01*
X38772Y100000D01*
X38644Y100976D01*
X38267Y101886D01*
X37668Y102667D01*
X36886Y103267D01*
X35976Y103644D01*
X35000Y103772D01*
D02*
G37*
G36*
X34032Y95256D02*
X31669D01*
Y92500D01*
X34032D01*
Y95256D01*
D02*
G37*
G36*
X29669D02*
X27307D01*
Y92500D01*
X29669D01*
Y95256D01*
D02*
G37*
G36*
X34032Y90500D02*
X30669D01*
X27307D01*
Y87756D01*
X27307Y87744D01*
Y87256D01*
X27307Y87244D01*
Y84500D01*
X30669D01*
X34032D01*
Y87244D01*
X34032Y87256D01*
Y87744D01*
X34032Y87756D01*
Y90500D01*
D02*
G37*
G36*
X6000Y82855D02*
Y80000D01*
X8855D01*
X8851Y80032D01*
X8453Y80993D01*
X7819Y81819D01*
X6993Y82453D01*
X6032Y82851D01*
X6000Y82855D01*
D02*
G37*
G36*
X34032Y82500D02*
X31669D01*
Y79744D01*
X34032D01*
Y82500D01*
D02*
G37*
G36*
X29669D02*
X27307D01*
Y79744D01*
X29669D01*
Y82500D01*
D02*
G37*
G36*
X8855Y78000D02*
X6000D01*
Y75145D01*
X6032Y75149D01*
X6993Y75547D01*
X7819Y76181D01*
X8453Y77007D01*
X8851Y77968D01*
X8855Y78000D01*
D02*
G37*
G36*
X23000Y75032D02*
Y72669D01*
X25756D01*
Y75032D01*
X23000D01*
D02*
G37*
G36*
X13000D02*
X10244D01*
Y72669D01*
X13000D01*
Y75032D01*
D02*
G37*
G36*
X25756Y70669D02*
X23000D01*
Y68307D01*
X25756D01*
Y70669D01*
D02*
G37*
G36*
X13000D02*
X10244D01*
Y68307D01*
X13000D01*
Y70669D01*
D02*
G37*
G36*
X18244Y75032D02*
X17756D01*
X17744Y75032D01*
X15000D01*
Y71669D01*
Y68307D01*
X17744D01*
X17756Y68307D01*
X18244D01*
X18256Y68307D01*
X21000D01*
Y71669D01*
Y75032D01*
X18256D01*
X18244Y75032D01*
D02*
G37*
G36*
X48000Y75772D02*
X47024Y75644D01*
X46114Y75267D01*
X45333Y74668D01*
X44733Y73886D01*
X44356Y72976D01*
X44228Y72000D01*
X44356Y71024D01*
X44733Y70114D01*
X45333Y69332D01*
X46114Y68733D01*
X47024Y68356D01*
X48000Y68228D01*
X48976Y68356D01*
X49886Y68733D01*
X50668Y69332D01*
X51267Y70114D01*
X51644Y71024D01*
X51772Y72000D01*
X51644Y72976D01*
X51267Y73886D01*
X50668Y74668D01*
X49886Y75267D01*
X48976Y75644D01*
X48000Y75772D01*
D02*
G37*
G36*
X6000Y62855D02*
Y60000D01*
X8855D01*
X8851Y60032D01*
X8453Y60993D01*
X7819Y61819D01*
X6993Y62453D01*
X6032Y62851D01*
X6000Y62855D01*
D02*
G37*
G36*
X64000D02*
X63968Y62851D01*
X63007Y62453D01*
X62181Y61819D01*
X61547Y60993D01*
X61149Y60032D01*
X61145Y60000D01*
X64000D01*
Y62855D01*
D02*
G37*
G36*
X51740Y65740D02*
X44260D01*
Y58260D01*
X51740D01*
Y65740D01*
D02*
G37*
G36*
X8855Y58000D02*
X6000D01*
Y55145D01*
X6032Y55149D01*
X6993Y55547D01*
X7819Y56181D01*
X8453Y57007D01*
X8851Y57968D01*
X8855Y58000D01*
D02*
G37*
G36*
X64000D02*
X61145D01*
X61149Y57968D01*
X61547Y57007D01*
X62181Y56181D01*
X63007Y55547D01*
X63968Y55149D01*
X64000Y55145D01*
Y58000D01*
D02*
G37*
G36*
X40000Y45206D02*
X39347Y45076D01*
X38794Y44706D01*
X38424Y44153D01*
X38294Y43500D01*
X38424Y42847D01*
X38794Y42294D01*
X39347Y41924D01*
X40000Y41794D01*
X40653Y41924D01*
X41206Y42294D01*
X41576Y42847D01*
X41706Y43500D01*
X41576Y44153D01*
X41206Y44706D01*
X40653Y45076D01*
X40000Y45206D01*
D02*
G37*
G36*
Y37206D02*
X39347Y37076D01*
X38794Y36706D01*
X38424Y36153D01*
X38294Y35500D01*
X38424Y34847D01*
X38794Y34294D01*
X39347Y33924D01*
X40000Y33794D01*
X40653Y33924D01*
X41206Y34294D01*
X41576Y34847D01*
X41706Y35500D01*
X41576Y36153D01*
X41206Y36706D01*
X40653Y37076D01*
X40000Y37206D01*
D02*
G37*
G36*
X22500Y30206D02*
X21847Y30076D01*
X21294Y29706D01*
X20924Y29153D01*
X20794Y28500D01*
X20924Y27847D01*
X21294Y27294D01*
X21847Y26924D01*
X22500Y26794D01*
X23153Y26924D01*
X23706Y27294D01*
X24076Y27847D01*
X24206Y28500D01*
X24076Y29153D01*
X23706Y29706D01*
X23153Y30076D01*
X22500Y30206D01*
D02*
G37*
G36*
X6000Y22855D02*
Y20000D01*
X8855D01*
X8851Y20032D01*
X8453Y20993D01*
X7819Y21819D01*
X6993Y22453D01*
X6032Y22851D01*
X6000Y22855D01*
D02*
G37*
G36*
X64000D02*
X63968Y22851D01*
X63007Y22453D01*
X62181Y21819D01*
X61547Y20993D01*
X61149Y20032D01*
X61145Y20000D01*
X64000D01*
Y22855D01*
D02*
G37*
G36*
X8855Y18000D02*
X6000D01*
Y15145D01*
X6032Y15149D01*
X6993Y15547D01*
X7819Y16181D01*
X8453Y17007D01*
X8851Y17968D01*
X8855Y18000D01*
D02*
G37*
G36*
X64000D02*
X61145D01*
X61149Y17968D01*
X61547Y17007D01*
X62181Y16181D01*
X63007Y15547D01*
X63968Y15149D01*
X64000Y15145D01*
Y18000D01*
D02*
G37*
G36*
X57261Y22445D02*
X12739D01*
Y14000D01*
X57261D01*
Y22445D01*
D02*
G37*
G36*
X60740Y11740D02*
X53260D01*
Y4260D01*
X60740D01*
Y11740D01*
D02*
G37*
G36*
X18240D02*
X10760D01*
Y4260D01*
X18240D01*
Y11740D01*
D02*
G37*
G36*
X47000Y11772D02*
X46024Y11644D01*
X45114Y11267D01*
X44333Y10667D01*
X43733Y9886D01*
X43356Y8976D01*
X43228Y8000D01*
X43356Y7024D01*
X43733Y6114D01*
X44333Y5333D01*
X45114Y4733D01*
X46024Y4356D01*
X47000Y4228D01*
X47976Y4356D01*
X48886Y4733D01*
X49668Y5333D01*
X50267Y6114D01*
X50644Y7024D01*
X50772Y8000D01*
X50644Y8976D01*
X50267Y9886D01*
X49668Y10667D01*
X48886Y11267D01*
X47976Y11644D01*
X47000Y11772D01*
D02*
G37*
G36*
X34500D02*
X33524Y11644D01*
X32614Y11267D01*
X31833Y10667D01*
X31233Y9886D01*
X30856Y8976D01*
X30728Y8000D01*
X30856Y7024D01*
X31233Y6114D01*
X31833Y5333D01*
X32614Y4733D01*
X33524Y4356D01*
X34500Y4228D01*
X35476Y4356D01*
X36386Y4733D01*
X37168Y5333D01*
X37767Y6114D01*
X38144Y7024D01*
X38272Y8000D01*
X38144Y8976D01*
X37767Y9886D01*
X37168Y10667D01*
X36386Y11267D01*
X35476Y11644D01*
X34500Y11772D01*
D02*
G37*
G36*
X24500D02*
X23524Y11644D01*
X22614Y11267D01*
X21833Y10667D01*
X21233Y9886D01*
X20856Y8976D01*
X20728Y8000D01*
X20856Y7024D01*
X21233Y6114D01*
X21833Y5333D01*
X22614Y4733D01*
X23524Y4356D01*
X24500Y4228D01*
X25476Y4356D01*
X26386Y4733D01*
X27167Y5333D01*
X27767Y6114D01*
X28144Y7024D01*
X28272Y8000D01*
X28144Y8976D01*
X27767Y9886D01*
X27167Y10667D01*
X26386Y11267D01*
X25476Y11644D01*
X24500Y11772D01*
D02*
G37*
%LPD*%
D12*
X55663Y20846D02*
Y16910D01*
Y18878D01*
X53039D01*
Y20846D01*
Y16910D01*
X51071Y19534D02*
X49759D01*
X49103Y18878D01*
Y16910D01*
X51071D01*
X51727Y17566D01*
X51071Y18222D01*
X49103D01*
X47791Y15598D02*
Y19534D01*
X45823D01*
X45167Y18878D01*
Y17566D01*
X45823Y16910D01*
X47791D01*
X43855Y15598D02*
Y19534D01*
X41888D01*
X41232Y18878D01*
Y17566D01*
X41888Y16910D01*
X43855D01*
X39920Y19534D02*
Y17566D01*
X39264Y16910D01*
X37296D01*
Y16254D01*
X37952Y15598D01*
X38608D01*
X37296Y16910D02*
Y19534D01*
X35984Y20846D02*
Y16910D01*
X34016D01*
X33360Y17566D01*
Y20190D01*
X34016Y20846D01*
X35984D01*
X31392Y16910D02*
X30080D01*
X29424Y17566D01*
Y18878D01*
X30080Y19534D01*
X31392D01*
X32048Y18878D01*
Y17566D01*
X31392Y16910D01*
X28113D02*
Y19534D01*
X26145D01*
X25489Y18878D01*
Y16910D01*
X24177Y19534D02*
Y17566D01*
X23521Y16910D01*
X21553D01*
Y19534D01*
X19585Y20190D02*
Y19534D01*
X20241D01*
X18929D01*
X19585D01*
Y17566D01*
X18929Y16910D01*
X16961D02*
X14993D01*
X14337Y17566D01*
X14993Y18222D01*
X16305D01*
X16961Y18878D01*
X16305Y19534D01*
X14337D01*
D14*
X70000Y120000D02*
X69952Y120980D01*
X69808Y121951D01*
X69569Y122903D01*
X69239Y123827D01*
X68819Y124714D01*
X68315Y125556D01*
X67730Y126344D01*
X67071Y127071D01*
X66344Y127730D01*
X65556Y128315D01*
X64714Y128819D01*
X63827Y129239D01*
X62903Y129569D01*
X61951Y129808D01*
X60980Y129952D01*
X60000Y130000D01*
Y0D02*
X60980Y48D01*
X61951Y192D01*
X62903Y431D01*
X63827Y761D01*
X64714Y1181D01*
X65556Y1685D01*
X66344Y2270D01*
X67071Y2929D01*
X67730Y3656D01*
X68315Y4444D01*
X68819Y5286D01*
X69239Y6173D01*
X69569Y7097D01*
X69808Y8049D01*
X69952Y9020D01*
X70000Y10000D01*
X0D02*
X48Y9020D01*
X192Y8049D01*
X431Y7097D01*
X761Y6173D01*
X1181Y5286D01*
X1685Y4444D01*
X2270Y3656D01*
X2929Y2929D01*
X3656Y2270D01*
X4444Y1685D01*
X5286Y1181D01*
X6173Y761D01*
X7097Y431D01*
X8049Y192D01*
X9020Y48D01*
X10000Y0D01*
Y130000D02*
X9020Y129952D01*
X8049Y129808D01*
X7097Y129569D01*
X6173Y129239D01*
X5286Y128819D01*
X4444Y128315D01*
X3656Y127730D01*
X2929Y127071D01*
X2270Y126344D01*
X1685Y125556D01*
X1181Y124714D01*
X761Y123827D01*
X431Y122903D01*
X192Y121951D01*
X48Y120980D01*
X0Y120000D01*
X10000Y130000D02*
X60000D01*
X70000Y10000D02*
Y120000D01*
X10000Y0D02*
X60000D01*
X0Y10000D02*
Y120000D01*
D27*
X5169Y120500D02*
D03*
X13831D02*
D03*
X39331Y91500D02*
D03*
X30669D02*
D03*
X39331Y83500D02*
D03*
X30669D02*
D03*
X56000Y120500D02*
D03*
X64661D02*
D03*
D28*
X54500Y104169D02*
D03*
Y112831D02*
D03*
X22000Y71669D02*
D03*
Y80331D02*
D03*
X14000D02*
D03*
Y71669D02*
D03*
X15500Y113331D02*
D03*
Y104669D02*
D03*
D31*
X39331Y91500D02*
X48799D01*
X49260Y91039D01*
Y84740D02*
Y89760D01*
X39331Y83500D02*
Y91500D01*
X49260Y84740D02*
X65000Y69000D01*
X49260Y91039D02*
Y95740D01*
Y89760D02*
Y91039D01*
X45000Y100000D02*
X49260Y95740D01*
X54669Y113000D02*
X58500D01*
X54500Y112831D02*
X54669Y113000D01*
X53275Y97516D02*
X55813D01*
X53000Y97240D02*
X53275Y97516D01*
X56000Y120500D02*
X56500Y121000D01*
X60500D01*
X5000Y89000D02*
X12653D01*
Y81677D02*
Y89000D01*
X54500Y104169D02*
X54894D01*
X5000Y120331D02*
X5169Y120500D01*
X25000Y100000D02*
X26953Y98047D01*
X25000Y100000D02*
X31866Y106866D01*
X5000Y88937D02*
Y89000D01*
X12653Y81677D02*
X14000Y80331D01*
X22000D01*
X31866Y106866D02*
Y111382D01*
X32441Y111957D01*
X22000Y97000D02*
X25000Y100000D01*
X22000Y80331D02*
Y97000D01*
D32*
X39331Y77331D02*
Y83500D01*
X5500Y69000D02*
X8500Y66000D01*
X5000Y69000D02*
X5500D01*
X8500Y66000D02*
X28000D01*
X39331Y77331D01*
X32000Y119000D02*
X34957D01*
X35000Y119043D01*
X12500Y98500D02*
Y100000D01*
X17500Y98500D02*
Y100000D01*
X15894Y113331D02*
X16224Y113000D01*
X20000D01*
X14000Y120669D02*
Y125000D01*
X13831Y120500D02*
X14000Y120669D01*
X13831Y120106D02*
X15209Y118728D01*
X13831Y120106D02*
Y120500D01*
X37559Y111957D02*
X38150Y111366D01*
Y106850D02*
X45000Y100000D01*
X38150Y106850D02*
Y111366D01*
D34*
X44547Y112567D02*
D03*
X25453D02*
D03*
D35*
X20827Y123000D02*
D03*
X49173D02*
D03*
D36*
X65000Y99000D02*
D03*
Y49000D02*
D03*
Y39000D02*
D03*
Y89000D02*
D03*
Y79000D02*
D03*
Y69000D02*
D03*
Y59000D02*
D03*
Y29000D02*
D03*
Y19000D02*
D03*
X5000Y99000D02*
D03*
Y49000D02*
D03*
Y39000D02*
D03*
Y89000D02*
D03*
Y79000D02*
D03*
Y69000D02*
D03*
Y59000D02*
D03*
Y29000D02*
D03*
Y19000D02*
D03*
X45000Y100000D02*
D03*
X35000D02*
D03*
X48000Y72000D02*
D03*
X34500Y8000D02*
D03*
X24500D02*
D03*
X47000D02*
D03*
D37*
X65000Y109000D02*
D03*
X5000D02*
D03*
X48000Y62000D02*
D03*
D38*
X25000Y100000D02*
D03*
X14500Y8000D02*
D03*
X57000D02*
D03*
D39*
X43000Y87500D02*
D03*
Y80000D02*
D03*
X40000Y70500D02*
D03*
X18000Y62500D02*
D03*
X39000Y66500D02*
D03*
X65000Y116000D02*
D03*
X53500Y89500D02*
D03*
X30500Y96000D02*
D03*
X55813Y97516D02*
D03*
X58500Y113000D02*
D03*
X60500Y121000D02*
D03*
X58500Y104000D02*
D03*
X40000Y96000D02*
D03*
X13500Y54000D02*
D03*
X32000D02*
D03*
X35500Y39500D02*
D03*
X48000D02*
D03*
Y25000D02*
D03*
X49000Y13000D02*
D03*
X41000Y12500D02*
D03*
X11500Y34000D02*
D03*
X18000D02*
D03*
X26500D02*
D03*
X30500Y13000D02*
D03*
X23000D02*
D03*
X32000Y119000D02*
D03*
X26500Y77500D02*
D03*
X34693Y85244D02*
D03*
X15000Y91500D02*
D03*
X56000Y53000D02*
D03*
X59000Y84000D02*
D03*
X5000Y116500D02*
D03*
X15500Y108000D02*
D03*
X27500Y28500D02*
D03*
X39500D02*
D03*
X56000Y36000D02*
D03*
Y43500D02*
D03*
X22000Y75000D02*
D03*
X14000D02*
D03*
X56500Y62500D02*
D03*
X22500Y28500D02*
D03*
X40000Y35500D02*
D03*
Y43500D02*
D03*
X12500Y100000D02*
D03*
X17500D02*
D03*
X20000Y113000D02*
D03*
X14000Y125000D02*
D03*
D48*
X56740Y89760D02*
D03*
X49260D02*
D03*
X53000Y97240D02*
D03*
D49*
X15000Y95500D02*
D03*
X12441D02*
D03*
X17559D02*
D03*
D50*
X12441Y87232D02*
D03*
X17559D02*
D03*
D51*
X32441Y111957D02*
D03*
X37559D02*
D03*
X35000Y119043D02*
D03*
M02*
