G04*
G04 #@! TF.GenerationSoftware,Altium Limited,Altium Designer,22.3.1 (43)*
G04*
G04 Layer_Physical_Order=3*
G04 Layer_Color=128*
%FSLAX25Y25*%
%MOIN*%
G70*
G04*
G04 #@! TF.SameCoordinates,84E4D32D-4FF1-4D47-81BD-E9999B9B3B43*
G04*
G04*
G04 #@! TF.FilePolarity,Negative*
G04*
G01*
G75*
%ADD38C,0.04000*%
%ADD39C,0.07543*%
%ADD40C,0.04787*%
%ADD41C,0.09228*%
%ADD42C,0.06756*%
%ADD43C,0.09230*%
D38*
X0Y10000D02*
X48Y9020D01*
X192Y8049D01*
X431Y7097D01*
X761Y6173D01*
X1181Y5286D01*
X1685Y4444D01*
X2270Y3656D01*
X2929Y2929D01*
X3656Y2270D01*
X4444Y1685D01*
X5286Y1181D01*
X6173Y761D01*
X7097Y431D01*
X8049Y192D01*
X9020Y48D01*
X10000Y0D01*
X62000D02*
X62980Y48D01*
X63951Y192D01*
X64903Y431D01*
X65827Y761D01*
X66714Y1181D01*
X67556Y1685D01*
X68344Y2270D01*
X69071Y2929D01*
X69730Y3656D01*
X70315Y4444D01*
X70819Y5286D01*
X71239Y6173D01*
X71569Y7097D01*
X71808Y8049D01*
X71952Y9020D01*
X72000Y10000D01*
Y125000D02*
X71952Y125980D01*
X71808Y126951D01*
X71569Y127903D01*
X71239Y128827D01*
X70819Y129714D01*
X70315Y130556D01*
X69730Y131344D01*
X69071Y132071D01*
X68344Y132730D01*
X67556Y133315D01*
X66714Y133819D01*
X65827Y134239D01*
X64903Y134569D01*
X63951Y134808D01*
X62980Y134952D01*
X62000Y135000D01*
X10000D02*
X9020Y134952D01*
X8049Y134808D01*
X7097Y134569D01*
X6173Y134239D01*
X5286Y133819D01*
X4444Y133315D01*
X3656Y132730D01*
X2929Y132071D01*
X2270Y131344D01*
X1685Y130556D01*
X1181Y129714D01*
X761Y128827D01*
X431Y127903D01*
X192Y126951D01*
X48Y125980D01*
X0Y125000D01*
X10000Y0D02*
X62000D01*
X72000Y10000D02*
Y125000D01*
X10000Y135000D02*
X62000D01*
X0Y10000D02*
Y125000D01*
D39*
X46000Y104500D02*
D03*
X26000D02*
D03*
X66000Y78000D02*
D03*
Y68000D02*
D03*
Y58000D02*
D03*
Y28000D02*
D03*
Y48000D02*
D03*
Y98000D02*
D03*
Y88000D02*
D03*
Y38000D02*
D03*
X6000Y78000D02*
D03*
Y68000D02*
D03*
Y58000D02*
D03*
Y28000D02*
D03*
Y48000D02*
D03*
Y98000D02*
D03*
Y88000D02*
D03*
Y38000D02*
D03*
X60500Y108500D02*
D03*
Y118500D02*
D03*
X34500Y8000D02*
D03*
X14500D02*
D03*
X24500D02*
D03*
X57000D02*
D03*
D40*
X26772Y32677D02*
D03*
X33858D02*
D03*
X45845Y56201D02*
D03*
X58050Y81004D02*
D03*
X46239Y99115D02*
D03*
X43877Y83367D02*
D03*
X28129D02*
D03*
X14743Y73918D02*
D03*
X40945Y7874D02*
D03*
X57480Y24016D02*
D03*
X38976Y24409D02*
D03*
X58050Y72343D02*
D03*
X27943Y91833D02*
D03*
X44143D02*
D03*
X36000Y90000D02*
D03*
X31539Y101314D02*
D03*
X52799Y117062D02*
D03*
X18941Y109188D02*
D03*
X55555Y101707D02*
D03*
X57917Y92259D02*
D03*
X15791Y87141D02*
D03*
X38976Y73228D02*
D03*
X33071D02*
D03*
X55949Y64700D02*
D03*
X39413Y63519D02*
D03*
X29570D02*
D03*
X29177Y53676D02*
D03*
X15791Y63519D02*
D03*
X15397Y37534D02*
D03*
X12205Y18504D02*
D03*
X29921Y11417D02*
D03*
X50394Y12992D02*
D03*
X57917Y57613D02*
D03*
Y50133D02*
D03*
Y34385D02*
D03*
Y42652D02*
D03*
X19757Y83921D02*
D03*
X17500Y92000D02*
D03*
X60630Y91732D02*
D03*
Y81102D02*
D03*
D41*
X21827Y125800D02*
D03*
D42*
X45547Y115367D02*
D03*
X26453D02*
D03*
D43*
X50173Y125800D02*
D03*
M02*
