G04*
G04 #@! TF.GenerationSoftware,Altium Limited,Altium Designer,22.3.1 (43)*
G04*
G04 Layer_Physical_Order=4*
G04 Layer_Color=16711680*
%FSLAX25Y25*%
%MOIN*%
G70*
G04*
G04 #@! TF.SameCoordinates,84E4D32D-4FF1-4D47-81BD-E9999B9B3B43*
G04*
G04*
G04 #@! TF.FilePolarity,Positive*
G04*
G01*
G75*
%ADD13C,0.00598*%
%ADD24R,0.05512X0.04724*%
%ADD29C,0.01500*%
%ADD30C,0.01968*%
%ADD32C,0.07284*%
%ADD33C,0.04921*%
%ADD34C,0.05906*%
%ADD35R,0.05906X0.05906*%
%ADD36R,0.05906X0.05906*%
%ADD37C,0.01575*%
%ADD44R,0.05709X0.02362*%
%ADD45R,0.04134X0.02362*%
G36*
X64683Y133844D02*
X66356Y133150D01*
X67863Y132144D01*
X69144Y130863D01*
X70151Y129357D01*
X70844Y127683D01*
X71197Y125906D01*
Y125000D01*
Y10000D01*
Y9094D01*
X70844Y7317D01*
X70151Y5644D01*
X69144Y4137D01*
X67863Y2856D01*
X66356Y1850D01*
X64683Y1156D01*
X62906Y803D01*
X9094D01*
X7317Y1156D01*
X5644Y1850D01*
X4137Y2856D01*
X2856Y4137D01*
X1850Y5644D01*
X1156Y7317D01*
X803Y9094D01*
Y10000D01*
Y125000D01*
Y125906D01*
X1156Y127683D01*
X1850Y129357D01*
X2856Y130863D01*
X4137Y132144D01*
X5644Y133150D01*
X7317Y133844D01*
X9094Y134197D01*
X62906D01*
X64683Y133844D01*
D02*
G37*
%LPC*%
G36*
X51173Y130338D02*
Y126800D01*
X54711D01*
X54499Y127592D01*
X53887Y128650D01*
X53023Y129514D01*
X51965Y130125D01*
X51173Y130338D01*
D02*
G37*
G36*
X22827D02*
Y126800D01*
X26364D01*
X26152Y127592D01*
X25541Y128650D01*
X24677Y129514D01*
X23618Y130125D01*
X22827Y130338D01*
D02*
G37*
G36*
X49173D02*
X48382Y130125D01*
X47323Y129514D01*
X46459Y128650D01*
X45848Y127592D01*
X45636Y126800D01*
X49173D01*
Y130338D01*
D02*
G37*
G36*
X20827D02*
X20035Y130125D01*
X18977Y129514D01*
X18113Y128650D01*
X17501Y127592D01*
X17289Y126800D01*
X20827D01*
Y130338D01*
D02*
G37*
G36*
X54711Y124800D02*
X51173D01*
Y121263D01*
X51965Y121475D01*
X53023Y122086D01*
X53887Y122950D01*
X54499Y124008D01*
X54711Y124800D01*
D02*
G37*
G36*
X26364D02*
X22827D01*
Y121263D01*
X23618Y121475D01*
X24677Y122086D01*
X25541Y122950D01*
X26152Y124008D01*
X26364Y124800D01*
D02*
G37*
G36*
X49173D02*
X45636D01*
X45848Y124008D01*
X46459Y122950D01*
X47323Y122086D01*
X48382Y121475D01*
X49173Y121263D01*
Y124800D01*
D02*
G37*
G36*
X20827D02*
X17289D01*
X17501Y124008D01*
X18113Y122950D01*
X18977Y122086D01*
X20035Y121475D01*
X20827Y121263D01*
Y124800D01*
D02*
G37*
G36*
X46547Y118682D02*
Y116367D01*
X48862D01*
X48772Y116703D01*
X48316Y117492D01*
X47672Y118136D01*
X46883Y118592D01*
X46547Y118682D01*
D02*
G37*
G36*
X27453D02*
Y116367D01*
X29768D01*
X29678Y116703D01*
X29222Y117492D01*
X28578Y118136D01*
X27788Y118592D01*
X27453Y118682D01*
D02*
G37*
G36*
X44547D02*
X44212Y118592D01*
X43422Y118136D01*
X42778Y117492D01*
X42322Y116703D01*
X42232Y116367D01*
X44547D01*
Y118682D01*
D02*
G37*
G36*
X25453D02*
X25117Y118592D01*
X24328Y118136D01*
X23684Y117492D01*
X23228Y116703D01*
X23138Y116367D01*
X25453D01*
Y118682D01*
D02*
G37*
G36*
X60992Y122240D02*
X60008D01*
X59056Y121985D01*
X58204Y121493D01*
X57507Y120797D01*
X57015Y119944D01*
X56760Y118992D01*
Y118008D01*
X57015Y117056D01*
X57507Y116203D01*
X58204Y115507D01*
X59056Y115015D01*
X60008Y114760D01*
X60992D01*
X61944Y115015D01*
X62796Y115507D01*
X63493Y116203D01*
X63985Y117056D01*
X64240Y118008D01*
Y118992D01*
X63985Y119944D01*
X63493Y120797D01*
X62796Y121493D01*
X61944Y121985D01*
X60992Y122240D01*
D02*
G37*
G36*
X48862Y114367D02*
X46547D01*
Y112052D01*
X46883Y112142D01*
X47672Y112598D01*
X48316Y113242D01*
X48772Y114031D01*
X48862Y114367D01*
D02*
G37*
G36*
X29768D02*
X27453D01*
Y112052D01*
X27788Y112142D01*
X28578Y112598D01*
X29222Y113242D01*
X29678Y114031D01*
X29768Y114367D01*
D02*
G37*
G36*
X44547D02*
X42232D01*
X42322Y114031D01*
X42778Y113242D01*
X43422Y112598D01*
X44212Y112142D01*
X44547Y112052D01*
Y114367D01*
D02*
G37*
G36*
X25453D02*
X23138D01*
X23228Y114031D01*
X23684Y113242D01*
X24328Y112598D01*
X25117Y112142D01*
X25453Y112052D01*
Y114367D01*
D02*
G37*
G36*
X46492Y108240D02*
X45508D01*
X44556Y107985D01*
X43703Y107493D01*
X43007Y106797D01*
X42515Y105944D01*
X42260Y104992D01*
Y104008D01*
X42515Y103056D01*
X43007Y102204D01*
X43703Y101507D01*
X44556Y101015D01*
X45508Y100760D01*
X46492D01*
X47444Y101015D01*
X48296Y101507D01*
X48993Y102204D01*
X49485Y103056D01*
X49740Y104008D01*
Y104992D01*
X49485Y105944D01*
X48993Y106797D01*
X48296Y107493D01*
X47444Y107985D01*
X46492Y108240D01*
D02*
G37*
G36*
X36492D02*
X35508D01*
X34556Y107985D01*
X33704Y107493D01*
X33007Y106797D01*
X32515Y105944D01*
X32260Y104992D01*
Y104008D01*
X32515Y103056D01*
X33007Y102204D01*
X33704Y101507D01*
X34556Y101015D01*
X35508Y100760D01*
X36492D01*
X37444Y101015D01*
X38296Y101507D01*
X38993Y102204D01*
X39485Y103056D01*
X39740Y104008D01*
Y104992D01*
X39485Y105944D01*
X38993Y106797D01*
X38296Y107493D01*
X37444Y107985D01*
X36492Y108240D01*
D02*
G37*
G36*
X29740D02*
X22260D01*
Y105390D01*
X17363D01*
X16672Y105252D01*
X16086Y104861D01*
X10927Y99703D01*
X10536Y99116D01*
X10398Y98425D01*
Y76378D01*
Y57874D01*
X10442Y57656D01*
Y34165D01*
X8051Y31775D01*
X7969D01*
X7794Y31740D01*
X2260D01*
Y24260D01*
X9740D01*
Y28466D01*
X10076Y28691D01*
X12272Y30886D01*
X16478Y26680D01*
X17064Y26289D01*
X17755Y26151D01*
X59441D01*
X59654Y26194D01*
X62260D01*
Y24260D01*
X69740D01*
Y31740D01*
X62260D01*
Y29806D01*
X59483D01*
X59271Y29764D01*
X57669D01*
Y31728D01*
X51961D01*
Y29764D01*
X45771D01*
X45823Y29817D01*
X46063Y30395D01*
Y31022D01*
X45852Y31532D01*
X47039D01*
Y35469D01*
X41331D01*
Y35306D01*
X39296D01*
X37806Y36795D01*
Y45807D01*
X40000D01*
Y49169D01*
Y52531D01*
X37806D01*
Y54681D01*
X44543D01*
Y57249D01*
X47457D01*
Y54681D01*
X51595D01*
X53284Y52992D01*
Y52531D01*
X52000D01*
Y49169D01*
Y45807D01*
X53284D01*
Y39209D01*
X51961D01*
Y35272D01*
X57669D01*
Y39209D01*
X56897D01*
Y53741D01*
X56759Y54432D01*
X56367Y55018D01*
X54543Y56842D01*
Y60980D01*
X50972D01*
Y67291D01*
X57957D01*
Y71228D01*
X50972D01*
Y74772D01*
X57957D01*
Y78709D01*
X50972D01*
Y80307D01*
X52831Y82166D01*
X59467D01*
X59295Y81994D01*
X59055Y81416D01*
Y80789D01*
X59062Y80771D01*
Y73370D01*
X59162Y72870D01*
X59182Y72770D01*
X59522Y72262D01*
X62478Y69305D01*
X62260Y68492D01*
Y67508D01*
X62515Y66556D01*
X63007Y65703D01*
X63704Y65007D01*
X64556Y64515D01*
X65508Y64260D01*
X66492D01*
X67444Y64515D01*
X68296Y65007D01*
X68993Y65703D01*
X69485Y66556D01*
X69740Y67508D01*
Y68492D01*
X69485Y69444D01*
X68993Y70297D01*
X68296Y70993D01*
X67444Y71485D01*
X66492Y71740D01*
X65508D01*
X64694Y71522D01*
X62197Y74019D01*
Y80771D01*
X62205Y80789D01*
Y81416D01*
X62006Y81897D01*
X63306Y80596D01*
X63007Y80296D01*
X62515Y79444D01*
X62260Y78492D01*
Y77508D01*
X62515Y76556D01*
X63007Y75704D01*
X63704Y75007D01*
X64556Y74515D01*
X65508Y74260D01*
X66492D01*
X67444Y74515D01*
X68296Y75007D01*
X68993Y75704D01*
X69485Y76556D01*
X69740Y77508D01*
Y78492D01*
X69485Y79444D01*
X68993Y80296D01*
X68296Y80993D01*
X67444Y81485D01*
X66973Y81611D01*
X66916Y81901D01*
X66524Y82487D01*
X64415Y84597D01*
X64556Y84515D01*
X65508Y84260D01*
X66492D01*
X67444Y84515D01*
X68296Y85007D01*
X68993Y85703D01*
X69485Y86556D01*
X69740Y87508D01*
Y88492D01*
X69485Y89444D01*
X68993Y90297D01*
X68296Y90993D01*
X67444Y91485D01*
X66492Y91740D01*
X65508D01*
X64556Y91485D01*
X63704Y90993D01*
X63007Y90297D01*
X62629Y89641D01*
X54543D01*
Y90819D01*
X47457D01*
Y89476D01*
X44543D01*
Y90819D01*
X37457D01*
Y89476D01*
X34543D01*
Y90819D01*
X27457D01*
Y89476D01*
X24543D01*
Y90819D01*
X20405D01*
X19306Y91918D01*
Y92000D01*
X19169Y92691D01*
X18984Y92968D01*
X20000D01*
Y95331D01*
X17244D01*
Y93756D01*
X16809Y93669D01*
X16223Y93277D01*
X15831Y92691D01*
X15694Y92000D01*
Y91169D01*
X15831Y90478D01*
X16223Y89892D01*
X17457Y88658D01*
Y84520D01*
X24543D01*
Y85863D01*
X27457D01*
Y84520D01*
X34194D01*
Y78547D01*
X31957D01*
Y78709D01*
X24673D01*
Y75181D01*
X24461D01*
Y74000D01*
X28315D01*
Y72000D01*
X24461D01*
Y70819D01*
X24673D01*
Y67291D01*
X31957D01*
Y67453D01*
X34194D01*
Y60980D01*
X27457D01*
Y59637D01*
X24543D01*
Y60980D01*
X17457D01*
Y59637D01*
X14011D01*
Y74934D01*
X14043D01*
Y74772D01*
X21327D01*
Y78709D01*
X14043D01*
Y78547D01*
X14011D01*
Y97677D01*
X18111Y101777D01*
X22260D01*
Y100760D01*
X29740D01*
Y108240D01*
D02*
G37*
G36*
X67000Y101824D02*
Y99000D01*
X69824D01*
X69683Y99526D01*
X69163Y100427D01*
X68427Y101163D01*
X67526Y101683D01*
X67000Y101824D01*
D02*
G37*
G36*
X7000D02*
Y99000D01*
X9824D01*
X9683Y99526D01*
X9163Y100427D01*
X8427Y101163D01*
X7526Y101683D01*
X7000Y101824D01*
D02*
G37*
G36*
X5000D02*
X4474Y101683D01*
X3573Y101163D01*
X2837Y100427D01*
X2317Y99526D01*
X2176Y99000D01*
X5000D01*
Y101824D01*
D02*
G37*
G36*
X44756Y99693D02*
X42000D01*
Y97331D01*
X44756D01*
Y99693D01*
D02*
G37*
G36*
X54756D02*
X52000D01*
Y97331D01*
X54756D01*
Y99693D01*
D02*
G37*
G36*
X34756D02*
X32000D01*
Y97331D01*
X34756D01*
Y99693D01*
D02*
G37*
G36*
X24756D02*
X22000D01*
Y97331D01*
X24756D01*
Y99693D01*
D02*
G37*
G36*
X40000D02*
X37244D01*
Y97331D01*
X40000D01*
Y99693D01*
D02*
G37*
G36*
X50000D02*
X47244D01*
Y97331D01*
X50000D01*
Y99693D01*
D02*
G37*
G36*
X30000D02*
X27244D01*
Y97331D01*
X30000D01*
Y99693D01*
D02*
G37*
G36*
X20000D02*
X17244D01*
Y97331D01*
X20000D01*
Y99693D01*
D02*
G37*
G36*
X69824Y97000D02*
X67000D01*
Y94176D01*
X67526Y94317D01*
X68427Y94837D01*
X69163Y95573D01*
X69683Y96474D01*
X69824Y97000D01*
D02*
G37*
G36*
X9824D02*
X7000D01*
Y94176D01*
X7526Y94317D01*
X8427Y94837D01*
X9163Y95573D01*
X9683Y96474D01*
X9824Y97000D01*
D02*
G37*
G36*
X64240Y112240D02*
X56760D01*
Y104760D01*
X59062D01*
Y92063D01*
X59055Y92045D01*
Y91419D01*
X59295Y90840D01*
X59738Y90397D01*
X60317Y90158D01*
X60943D01*
X61522Y90397D01*
X61965Y90840D01*
X62205Y91419D01*
Y92045D01*
X62197Y92063D01*
Y96919D01*
X62317Y96474D01*
X62837Y95573D01*
X63573Y94837D01*
X64474Y94317D01*
X65000Y94176D01*
Y98000D01*
Y101824D01*
X64474Y101683D01*
X63573Y101163D01*
X62837Y100427D01*
X62317Y99526D01*
X62197Y99081D01*
Y104760D01*
X64240D01*
Y112240D01*
D02*
G37*
G36*
X5000Y97000D02*
X2176D01*
X2317Y96474D01*
X2837Y95573D01*
X3573Y94837D01*
X4474Y94317D01*
X5000Y94176D01*
Y97000D01*
D02*
G37*
G36*
X54756Y95331D02*
X52000D01*
Y92968D01*
X54756D01*
Y95331D01*
D02*
G37*
G36*
X50000D02*
X47244D01*
Y92968D01*
X50000D01*
Y95331D01*
D02*
G37*
G36*
X44756D02*
X42000D01*
Y92968D01*
X44756D01*
Y95331D01*
D02*
G37*
G36*
X40000D02*
X37244D01*
Y92968D01*
X40000D01*
Y95331D01*
D02*
G37*
G36*
X34756D02*
X32000D01*
Y92968D01*
X34756D01*
Y95331D01*
D02*
G37*
G36*
X30000D02*
X27244D01*
Y92968D01*
X30000D01*
Y95331D01*
D02*
G37*
G36*
X24756D02*
X22000D01*
Y92968D01*
X24756D01*
Y95331D01*
D02*
G37*
G36*
X6492Y91740D02*
X5508D01*
X4556Y91485D01*
X3703Y90993D01*
X3007Y90297D01*
X2515Y89444D01*
X2260Y88492D01*
Y87508D01*
X2515Y86556D01*
X3007Y85703D01*
X3703Y85007D01*
X4556Y84515D01*
X5508Y84260D01*
X6492D01*
X7444Y84515D01*
X8297Y85007D01*
X8993Y85703D01*
X9485Y86556D01*
X9740Y87508D01*
Y88492D01*
X9485Y89444D01*
X8993Y90297D01*
X8297Y90993D01*
X7444Y91485D01*
X6492Y91740D01*
D02*
G37*
G36*
Y81740D02*
X5508D01*
X4556Y81485D01*
X3703Y80993D01*
X3007Y80296D01*
X2515Y79444D01*
X2260Y78492D01*
Y77508D01*
X2515Y76556D01*
X3007Y75704D01*
X3703Y75007D01*
X4556Y74515D01*
X5508Y74260D01*
X6492D01*
X7444Y74515D01*
X8297Y75007D01*
X8993Y75704D01*
X9485Y76556D01*
X9740Y77508D01*
Y78492D01*
X9485Y79444D01*
X8993Y80296D01*
X8297Y80993D01*
X7444Y81485D01*
X6492Y81740D01*
D02*
G37*
G36*
X21327Y71228D02*
X14043D01*
Y67291D01*
X21327D01*
Y71228D01*
D02*
G37*
G36*
X6492Y71740D02*
X5508D01*
X4556Y71485D01*
X3703Y70993D01*
X3007Y70297D01*
X2515Y69444D01*
X2260Y68492D01*
Y67508D01*
X2515Y66556D01*
X3007Y65703D01*
X3703Y65007D01*
X4556Y64515D01*
X5508Y64260D01*
X6492D01*
X7444Y64515D01*
X8297Y65007D01*
X8993Y65703D01*
X9485Y66556D01*
X9740Y67508D01*
Y68492D01*
X9485Y69444D01*
X8993Y70297D01*
X8297Y70993D01*
X7444Y71485D01*
X6492Y71740D01*
D02*
G37*
G36*
X66492Y61740D02*
X65508D01*
X64556Y61485D01*
X63704Y60993D01*
X63007Y60296D01*
X62515Y59444D01*
X62260Y58492D01*
Y57508D01*
X62515Y56556D01*
X63007Y55704D01*
X63704Y55007D01*
X64556Y54515D01*
X65508Y54260D01*
X66492D01*
X67444Y54515D01*
X68296Y55007D01*
X68993Y55704D01*
X69485Y56556D01*
X69740Y57508D01*
Y58492D01*
X69485Y59444D01*
X68993Y60296D01*
X68296Y60993D01*
X67444Y61485D01*
X66492Y61740D01*
D02*
G37*
G36*
X6492D02*
X5508D01*
X4556Y61485D01*
X3703Y60993D01*
X3007Y60296D01*
X2515Y59444D01*
X2260Y58492D01*
Y57508D01*
X2515Y56556D01*
X3007Y55704D01*
X3703Y55007D01*
X4556Y54515D01*
X5508Y54260D01*
X6492D01*
X7444Y54515D01*
X8297Y55007D01*
X8993Y55704D01*
X9485Y56556D01*
X9740Y57508D01*
Y58492D01*
X9485Y59444D01*
X8993Y60296D01*
X8297Y60993D01*
X7444Y61485D01*
X6492Y61740D01*
D02*
G37*
G36*
X50000Y52531D02*
X47244D01*
Y50169D01*
X50000D01*
Y52531D01*
D02*
G37*
G36*
X44756D02*
X42000D01*
Y50169D01*
X44756D01*
Y52531D01*
D02*
G37*
G36*
X67000Y51824D02*
Y49000D01*
X69824D01*
X69683Y49526D01*
X69163Y50427D01*
X68427Y51163D01*
X67526Y51683D01*
X67000Y51824D01*
D02*
G37*
G36*
X7000D02*
Y49000D01*
X9824D01*
X9683Y49526D01*
X9163Y50427D01*
X8427Y51163D01*
X7526Y51683D01*
X7000Y51824D01*
D02*
G37*
G36*
X65000D02*
X64474Y51683D01*
X63573Y51163D01*
X62837Y50427D01*
X62317Y49526D01*
X62176Y49000D01*
X65000D01*
Y51824D01*
D02*
G37*
G36*
X5000D02*
X4474Y51683D01*
X3573Y51163D01*
X2837Y50427D01*
X2317Y49526D01*
X2176Y49000D01*
X5000D01*
Y51824D01*
D02*
G37*
G36*
X50000Y48169D02*
X47244D01*
Y45807D01*
X50000D01*
Y48169D01*
D02*
G37*
G36*
X44756D02*
X42000D01*
Y45807D01*
X43701D01*
Y45750D01*
X43940Y45171D01*
X44383Y44728D01*
X44962Y44488D01*
X45589D01*
X46168Y44728D01*
X46611Y45171D01*
X46850Y45750D01*
Y46376D01*
X46611Y46955D01*
X46168Y47398D01*
X45589Y47638D01*
X44962D01*
X44756Y47552D01*
Y48169D01*
D02*
G37*
G36*
X69824Y47000D02*
X67000D01*
Y44176D01*
X67526Y44317D01*
X68427Y44837D01*
X69163Y45573D01*
X69683Y46474D01*
X69824Y47000D01*
D02*
G37*
G36*
X9824D02*
X7000D01*
Y44176D01*
X7526Y44317D01*
X8427Y44837D01*
X9163Y45573D01*
X9683Y46474D01*
X9824Y47000D01*
D02*
G37*
G36*
X5000D02*
X2176D01*
X2317Y46474D01*
X2837Y45573D01*
X3573Y44837D01*
X4474Y44317D01*
X5000Y44176D01*
Y47000D01*
D02*
G37*
G36*
X65000D02*
X62176D01*
X62317Y46474D01*
X62837Y45573D01*
X63573Y44837D01*
X64474Y44317D01*
X65000Y44176D01*
Y47000D01*
D02*
G37*
G36*
X66492Y41740D02*
X65508D01*
X64556Y41485D01*
X63704Y40993D01*
X63007Y40297D01*
X62515Y39444D01*
X62260Y38492D01*
Y37508D01*
X62515Y36556D01*
X63007Y35704D01*
X63704Y35007D01*
X64556Y34515D01*
X65508Y34260D01*
X66492D01*
X67444Y34515D01*
X68296Y35007D01*
X68993Y35704D01*
X69485Y36556D01*
X69740Y37508D01*
Y38492D01*
X69485Y39444D01*
X68993Y40297D01*
X68296Y40993D01*
X67444Y41485D01*
X66492Y41740D01*
D02*
G37*
G36*
X6492D02*
X5508D01*
X4556Y41485D01*
X3703Y40993D01*
X3007Y40297D01*
X2515Y39444D01*
X2260Y38492D01*
Y37508D01*
X2515Y36556D01*
X3007Y35704D01*
X3703Y35007D01*
X4556Y34515D01*
X5508Y34260D01*
X6492D01*
X7444Y34515D01*
X8297Y35007D01*
X8993Y35704D01*
X9485Y36556D01*
X9740Y37508D01*
Y38492D01*
X9485Y39444D01*
X8993Y40297D01*
X8297Y40993D01*
X7444Y41485D01*
X6492Y41740D01*
D02*
G37*
G36*
X58261Y22799D02*
X13739D01*
Y14354D01*
X58261D01*
Y22799D01*
D02*
G37*
G36*
X60740Y11740D02*
X53260D01*
Y4260D01*
X60740D01*
Y11740D01*
D02*
G37*
G36*
X47492D02*
X46508D01*
X45556Y11485D01*
X44704Y10993D01*
X44007Y10296D01*
X43515Y9444D01*
X43260Y8492D01*
Y7508D01*
X43515Y6556D01*
X44007Y5703D01*
X44704Y5007D01*
X45556Y4515D01*
X46508Y4260D01*
X47492D01*
X48444Y4515D01*
X49297Y5007D01*
X49993Y5703D01*
X50485Y6556D01*
X50740Y7508D01*
Y8492D01*
X50485Y9444D01*
X49993Y10296D01*
X49297Y10993D01*
X48444Y11485D01*
X47492Y11740D01*
D02*
G37*
G36*
X34992D02*
X34008D01*
X33056Y11485D01*
X32204Y10993D01*
X31507Y10296D01*
X31015Y9444D01*
X30760Y8492D01*
Y7508D01*
X31015Y6556D01*
X31507Y5703D01*
X32204Y5007D01*
X33056Y4515D01*
X34008Y4260D01*
X34992D01*
X35944Y4515D01*
X36797Y5007D01*
X37493Y5703D01*
X37985Y6556D01*
X38240Y7508D01*
Y8492D01*
X37985Y9444D01*
X37493Y10296D01*
X36797Y10993D01*
X35944Y11485D01*
X34992Y11740D01*
D02*
G37*
G36*
X24992D02*
X24008D01*
X23056Y11485D01*
X22204Y10993D01*
X21507Y10296D01*
X21015Y9444D01*
X20760Y8492D01*
Y7508D01*
X21015Y6556D01*
X21507Y5703D01*
X22204Y5007D01*
X23056Y4515D01*
X24008Y4260D01*
X24992D01*
X25944Y4515D01*
X26796Y5007D01*
X27493Y5703D01*
X27985Y6556D01*
X28240Y7508D01*
Y8492D01*
X27985Y9444D01*
X27493Y10296D01*
X26796Y10993D01*
X25944Y11485D01*
X24992Y11740D01*
D02*
G37*
G36*
X18240D02*
X10760D01*
Y4260D01*
X18240D01*
Y11740D01*
D02*
G37*
%LPD*%
G36*
X47457Y84520D02*
X50075D01*
X47888Y82332D01*
X47497Y81746D01*
X47359Y81055D01*
Y75181D01*
X47327D01*
Y78709D01*
X40043D01*
Y78547D01*
X37806D01*
Y84520D01*
X44543D01*
Y85863D01*
X47457D01*
Y84520D01*
D02*
G37*
G36*
X47359Y69291D02*
Y60861D01*
X44543D01*
Y60980D01*
X37806D01*
Y67453D01*
X40043D01*
Y67291D01*
X47327D01*
Y70819D01*
X47359D01*
Y69291D01*
D02*
G37*
G36*
X27457Y54681D02*
X34194D01*
Y52531D01*
X32000D01*
Y49169D01*
Y45807D01*
X34194D01*
Y36047D01*
X34331Y35356D01*
X34723Y34770D01*
X37270Y32223D01*
X37856Y31831D01*
X38547Y31694D01*
X41331D01*
Y31532D01*
X43124D01*
X42913Y31022D01*
Y30395D01*
X43153Y29817D01*
X43206Y29764D01*
X18503D01*
X14054Y34213D01*
Y56024D01*
X17457D01*
Y54681D01*
X24543D01*
Y56024D01*
X27457D01*
Y54681D01*
D02*
G37*
%LPC*%
G36*
X30000Y52531D02*
X27244D01*
Y50169D01*
X30000D01*
Y52531D01*
D02*
G37*
G36*
X24756D02*
X22000D01*
Y50169D01*
X24756D01*
Y52531D01*
D02*
G37*
G36*
X20000D02*
X17244D01*
Y50169D01*
X20000D01*
Y52531D01*
D02*
G37*
G36*
X30000Y48169D02*
X27244D01*
Y45807D01*
X30000D01*
Y48169D01*
D02*
G37*
G36*
X24756D02*
X22000D01*
Y45807D01*
X24756D01*
Y48169D01*
D02*
G37*
G36*
X20000D02*
X17244D01*
Y45807D01*
X20000D01*
Y48169D01*
D02*
G37*
%LPD*%
D13*
X56663Y21200D02*
Y17265D01*
Y19232D01*
X54039D01*
Y21200D01*
Y17265D01*
X52071Y19888D02*
X50759D01*
X50103Y19232D01*
Y17265D01*
X52071D01*
X52727Y17921D01*
X52071Y18577D01*
X50103D01*
X48791Y15953D02*
Y19888D01*
X46823D01*
X46167Y19232D01*
Y17921D01*
X46823Y17265D01*
X48791D01*
X44855Y15953D02*
Y19888D01*
X42887D01*
X42232Y19232D01*
Y17921D01*
X42887Y17265D01*
X44855D01*
X40920Y19888D02*
Y17921D01*
X40264Y17265D01*
X38296D01*
Y16609D01*
X38952Y15953D01*
X39608D01*
X38296Y17265D02*
Y19888D01*
X36984Y21200D02*
Y17265D01*
X35016D01*
X34360Y17921D01*
Y20544D01*
X35016Y21200D01*
X36984D01*
X32392Y17265D02*
X31080D01*
X30424Y17921D01*
Y19232D01*
X31080Y19888D01*
X32392D01*
X33048Y19232D01*
Y17921D01*
X32392Y17265D01*
X29112D02*
Y19888D01*
X27145D01*
X26489Y19232D01*
Y17265D01*
X25177Y19888D02*
Y17921D01*
X24521Y17265D01*
X22553D01*
Y19888D01*
X20585Y20544D02*
Y19888D01*
X21241D01*
X19929D01*
X20585D01*
Y17921D01*
X19929Y17265D01*
X17961D02*
X15993D01*
X15337Y17921D01*
X15993Y18577D01*
X17305D01*
X17961Y19232D01*
X17305Y19888D01*
X15337D01*
D24*
X41000Y57831D02*
D03*
Y49169D02*
D03*
X51000Y57831D02*
D03*
Y49169D02*
D03*
Y87669D02*
D03*
Y96331D02*
D03*
X41000Y87669D02*
D03*
Y96331D02*
D03*
X21000Y57831D02*
D03*
Y49169D02*
D03*
X31000Y57831D02*
D03*
Y49169D02*
D03*
Y87669D02*
D03*
Y96331D02*
D03*
X21000Y87669D02*
D03*
Y96331D02*
D03*
D29*
X60630Y73370D02*
X66000Y68000D01*
X60630Y73370D02*
Y81102D01*
X60500Y108500D02*
X60630Y108370D01*
Y91732D02*
Y108370D01*
D30*
X38976Y73228D02*
X39008Y73197D01*
X43488D02*
X43685Y73000D01*
X39008Y73197D02*
X43488D01*
X28512D02*
X33039D01*
X28315Y73000D02*
X28512Y73197D01*
X33039D02*
X33071Y73228D01*
X55090Y37437D02*
Y53741D01*
X54893Y37240D02*
X55090Y37437D01*
X54815Y37240D02*
X54893D01*
X52772Y56059D02*
Y56453D01*
X51000Y57831D02*
X51394D01*
X52772Y56059D02*
X55090Y53741D01*
X51394Y57831D02*
X52772Y56453D01*
X49165Y59402D02*
Y69291D01*
X36000Y87669D02*
X41000D01*
X12248Y33465D02*
Y57831D01*
X17755Y27958D02*
X59441D01*
X12272Y33441D02*
X17755Y27958D01*
X7969Y29969D02*
X8799D01*
X12272Y33441D01*
X12248Y33465D02*
X12272Y33441D01*
X6000Y28000D02*
X7969Y29969D01*
X31000Y87669D02*
X36000D01*
Y76740D02*
Y87669D01*
X41000D02*
X51000D01*
X36000Y76740D02*
X43685D01*
X28315D02*
X36000D01*
Y69260D02*
Y76740D01*
X12567D02*
X17685D01*
X12205Y76378D02*
Y98425D01*
Y57874D02*
Y76378D01*
X12567Y76740D01*
X12205Y57874D02*
X12248Y57831D01*
X21000D01*
X17363Y103583D02*
X25083D01*
X12205Y98425D02*
X17363Y103583D01*
X25083D02*
X26000Y104500D01*
X19228Y89047D02*
X20606Y87669D01*
X17500Y91169D02*
Y92000D01*
X19228Y89047D02*
Y89441D01*
X17500Y91169D02*
X19228Y89441D01*
X38547Y33500D02*
X44185D01*
X36000Y36047D02*
Y69260D01*
Y36047D02*
X38547Y33500D01*
X49776Y59055D02*
X51000Y57831D01*
X42224Y59055D02*
X49776D01*
X41000Y57831D02*
X42224Y59055D01*
X49197Y69260D02*
X54315D01*
X49165Y69291D02*
Y81055D01*
Y69291D02*
X49197Y69260D01*
X49165Y81055D02*
X52083Y83973D01*
X21000Y57831D02*
X31000D01*
X52083Y83973D02*
X62484D01*
X65247Y81210D01*
Y78753D02*
X66000Y78000D01*
X65247Y78753D02*
Y81210D01*
X59441Y27958D02*
X59483Y28000D01*
X66000D01*
X21000Y87669D02*
X31000D01*
X36000Y69260D02*
X43685D01*
X28315D02*
X36000D01*
X51000Y87669D02*
X51165Y87835D01*
X65835D01*
X66000Y88000D01*
D32*
X21827Y125800D02*
D03*
X50173D02*
D03*
D33*
X45547Y115367D02*
D03*
X26453D02*
D03*
D34*
X46000Y104500D02*
D03*
X36000D02*
D03*
X66000Y78000D02*
D03*
Y68000D02*
D03*
Y58000D02*
D03*
Y48000D02*
D03*
Y98000D02*
D03*
Y88000D02*
D03*
Y38000D02*
D03*
X6000Y78000D02*
D03*
Y68000D02*
D03*
Y58000D02*
D03*
Y48000D02*
D03*
Y98000D02*
D03*
Y88000D02*
D03*
Y38000D02*
D03*
X60500Y118500D02*
D03*
X34500Y8000D02*
D03*
X24500D02*
D03*
X47000D02*
D03*
D35*
X26000Y104500D02*
D03*
X14500Y8000D02*
D03*
X57000D02*
D03*
D36*
X66000Y28000D02*
D03*
X6000D02*
D03*
X60500Y108500D02*
D03*
D37*
X26772Y32677D02*
D03*
X33858D02*
D03*
X45276Y46063D02*
D03*
X44488Y30709D02*
D03*
X45845Y56201D02*
D03*
X58050Y81004D02*
D03*
X46239Y99115D02*
D03*
X43877Y83367D02*
D03*
X28129D02*
D03*
X14743Y73918D02*
D03*
X40945Y7874D02*
D03*
X57480Y24016D02*
D03*
X38976Y24409D02*
D03*
X58050Y72343D02*
D03*
X27943Y91833D02*
D03*
X44143D02*
D03*
X36000Y90000D02*
D03*
X31539Y101314D02*
D03*
X52799Y117062D02*
D03*
X18941Y109188D02*
D03*
X55555Y101707D02*
D03*
X57917Y92259D02*
D03*
X15791Y87141D02*
D03*
X38976Y73228D02*
D03*
X33071D02*
D03*
X55949Y64700D02*
D03*
X39413Y63519D02*
D03*
X29570D02*
D03*
X29177Y53676D02*
D03*
X15791Y63519D02*
D03*
X15397Y37534D02*
D03*
X12205Y18504D02*
D03*
X29921Y11417D02*
D03*
X50394Y12992D02*
D03*
X57917Y57613D02*
D03*
Y50133D02*
D03*
Y34385D02*
D03*
Y42652D02*
D03*
X19757Y83921D02*
D03*
X17500Y92000D02*
D03*
X60630Y91732D02*
D03*
Y81102D02*
D03*
D44*
X43685Y69260D02*
D03*
Y73000D02*
D03*
Y76740D02*
D03*
X54315D02*
D03*
Y69260D02*
D03*
X28315Y76740D02*
D03*
Y73000D02*
D03*
Y69260D02*
D03*
X17685D02*
D03*
Y76740D02*
D03*
D45*
X44185Y33500D02*
D03*
X54815Y37240D02*
D03*
Y29760D02*
D03*
M02*
