G04*
G04 #@! TF.GenerationSoftware,Altium Limited,Altium Designer,22.5.1 (42)*
G04*
G04 Layer_Color=32768*
%FSLAX25Y25*%
%MOIN*%
G70*
G04*
G04 #@! TF.SameCoordinates,C3C7CF66-0B5B-4541-851D-C3C27CC74C65*
G04*
G04*
G04 #@! TF.FilePolarity,Positive*
G04*
G01*
G75*
%ADD14C,0.00000*%
%ADD56C,0.00394*%
%ADD57C,0.00197*%
D14*
X70000Y120000D02*
X69952Y120980D01*
X69808Y121951D01*
X69569Y122903D01*
X69239Y123827D01*
X68819Y124714D01*
X68315Y125556D01*
X67730Y126344D01*
X67071Y127071D01*
X66344Y127730D01*
X65556Y128315D01*
X64714Y128819D01*
X63827Y129239D01*
X62903Y129569D01*
X61951Y129808D01*
X60980Y129952D01*
X60000Y130000D01*
Y0D02*
X60980Y48D01*
X61951Y192D01*
X62903Y431D01*
X63827Y761D01*
X64714Y1181D01*
X65556Y1685D01*
X66344Y2270D01*
X67071Y2929D01*
X67730Y3656D01*
X68315Y4444D01*
X68819Y5286D01*
X69239Y6173D01*
X69569Y7097D01*
X69808Y8049D01*
X69952Y9020D01*
X70000Y10000D01*
X0D02*
X48Y9020D01*
X192Y8049D01*
X431Y7097D01*
X761Y6173D01*
X1181Y5286D01*
X1685Y4444D01*
X2270Y3656D01*
X2929Y2929D01*
X3656Y2270D01*
X4444Y1685D01*
X5286Y1181D01*
X6173Y761D01*
X7097Y431D01*
X8049Y192D01*
X9020Y48D01*
X10000Y0D01*
Y130000D02*
X9020Y129952D01*
X8049Y129808D01*
X7097Y129569D01*
X6173Y129239D01*
X5286Y128819D01*
X4444Y128315D01*
X3656Y127730D01*
X2929Y127071D01*
X2270Y126344D01*
X1685Y125556D01*
X1181Y124714D01*
X761Y123827D01*
X431Y122903D01*
X192Y121951D01*
X48Y120980D01*
X0Y120000D01*
X10000Y130000D02*
X60000D01*
X70000Y10000D02*
Y120000D01*
X10000Y0D02*
X60000D01*
X0Y10000D02*
Y120000D01*
D56*
X13681Y105874D02*
X56319D01*
X13681D02*
Y135402D01*
X56319Y105874D02*
Y135402D01*
X13681D02*
X56319D01*
D57*
X50957Y115980D02*
X58043D01*
X50957Y101020D02*
X58043D01*
Y115980D01*
X50957Y101020D02*
Y115980D01*
X58500Y115500D02*
X71500D01*
X58500Y12500D02*
X71500D01*
X58500D02*
Y115500D01*
X71500Y12500D02*
Y115500D01*
X-1500D02*
X11500D01*
X-1500Y12500D02*
X11500D01*
X-1500D02*
Y115500D01*
X11500Y12500D02*
Y115500D01*
X16980Y116957D02*
Y124043D01*
X2020Y116957D02*
Y124043D01*
Y116957D02*
X16980D01*
X2020Y124043D02*
X16980D01*
X38705Y55020D02*
Y69980D01*
X14295Y55020D02*
X38705D01*
X14295D02*
Y69980D01*
X38705D01*
X18457Y83480D02*
X25543D01*
X18457Y68520D02*
X25543D01*
Y83480D01*
X18457Y68520D02*
Y83480D01*
X34480Y77457D02*
Y84543D01*
X19520D02*
X34480D01*
X19520Y77457D02*
X34480D01*
X19520D02*
Y84543D01*
X35520Y77457D02*
Y84543D01*
Y77457D02*
X50480D01*
X35520Y84543D02*
X50480D01*
Y77457D02*
Y84543D01*
X40350Y49457D02*
Y56543D01*
X55311Y49457D02*
Y56543D01*
X40350Y49457D02*
X55311D01*
X40350Y56543D02*
X55311D01*
X59988Y86216D02*
Y100784D01*
X46012D02*
X59988D01*
X46012Y86216D02*
Y100784D01*
Y86216D02*
X59988D01*
X9882Y99240D02*
X20118D01*
Y83492D02*
Y99240D01*
X9882Y83492D02*
X20118D01*
X9882D02*
Y99240D01*
X29488Y108413D02*
Y122587D01*
Y108413D02*
X40512D01*
X29488Y122587D02*
X40512D01*
Y108413D02*
Y122587D01*
X38945Y16732D02*
Y33268D01*
X57055D01*
X38945Y16732D02*
X57055D01*
Y33268D01*
X67480Y118457D02*
Y125543D01*
X52520D02*
X67480D01*
X52520Y118457D02*
X67480D01*
X52520D02*
Y125543D01*
X19520Y84276D02*
Y93724D01*
X35661D01*
Y84276D02*
Y93724D01*
X19520Y84276D02*
X35661D01*
X34339Y93724D02*
X50480D01*
X34339Y84276D02*
Y93724D01*
Y84276D02*
X50480D01*
Y93724D01*
X14000Y19500D02*
Y50500D01*
X36000Y19500D02*
Y50500D01*
X14000Y19500D02*
X36000D01*
X14000Y50500D02*
X36000D01*
X19094Y93701D02*
Y106299D01*
X50906Y93701D02*
Y106299D01*
X19094Y93701D02*
X50906D01*
X19094Y106299D02*
X50906D01*
X41701Y56094D02*
X54299D01*
X41701Y77905D02*
X54299D01*
Y56094D02*
Y77905D01*
X41701Y56094D02*
Y77905D01*
X8595Y1701D02*
Y14299D01*
X40405Y1701D02*
Y14299D01*
X8595Y1701D02*
X40405D01*
X8595Y14299D02*
X40405D01*
X62906Y1701D02*
Y14299D01*
X41094Y1701D02*
Y14299D01*
X62906D01*
X41094Y1701D02*
X62906D01*
X27520Y95043D02*
X42480D01*
X27520Y87957D02*
X42480D01*
X27520D02*
Y95043D01*
X42480Y87957D02*
Y95043D01*
X27520Y87043D02*
X42480D01*
X27520Y79957D02*
X42480D01*
X27520D02*
Y87043D01*
X42480Y79957D02*
Y87043D01*
X52850Y116957D02*
X67811D01*
X52850Y124043D02*
X67811D01*
Y116957D02*
Y124043D01*
X52850Y116957D02*
Y124043D01*
X10457Y68520D02*
Y83480D01*
X17543Y68520D02*
Y83480D01*
X10457Y68520D02*
X17543D01*
X10457Y83480D02*
X17543D01*
X11957Y101520D02*
Y116480D01*
X19043Y101520D02*
Y116480D01*
X11957Y101520D02*
X19043D01*
X11957Y116480D02*
X19043D01*
X40520Y39543D02*
X55480D01*
X40520Y32457D02*
X55480D01*
Y39543D01*
X40520Y32457D02*
Y39543D01*
Y47043D02*
X55480D01*
X40520Y39957D02*
X55480D01*
Y47043D01*
X40520Y39957D02*
Y47043D01*
M02*
