G04*
G04 #@! TF.GenerationSoftware,Altium Limited,Altium Designer,22.5.1 (42)*
G04*
G04 Layer_Color=16711935*
%FSLAX25Y25*%
%MOIN*%
G70*
G04*
G04 #@! TF.SameCoordinates,C3C7CF66-0B5B-4541-851D-C3C27CC74C65*
G04*
G04*
G04 #@! TF.FilePolarity,Positive*
G04*
G01*
G75*
%ADD14C,0.00000*%
%ADD56C,0.00394*%
D14*
X70000Y120000D02*
X69952Y120980D01*
X69808Y121951D01*
X69569Y122903D01*
X69239Y123827D01*
X68819Y124714D01*
X68315Y125556D01*
X67730Y126344D01*
X67071Y127071D01*
X66344Y127730D01*
X65556Y128315D01*
X64714Y128819D01*
X63827Y129239D01*
X62903Y129569D01*
X61951Y129808D01*
X60980Y129952D01*
X60000Y130000D01*
Y0D02*
X60980Y48D01*
X61951Y192D01*
X62903Y431D01*
X63827Y761D01*
X64714Y1181D01*
X65556Y1685D01*
X66344Y2270D01*
X67071Y2929D01*
X67730Y3656D01*
X68315Y4444D01*
X68819Y5286D01*
X69239Y6173D01*
X69569Y7097D01*
X69808Y8049D01*
X69952Y9020D01*
X70000Y10000D01*
X0D02*
X48Y9020D01*
X192Y8049D01*
X431Y7097D01*
X761Y6173D01*
X1181Y5286D01*
X1685Y4444D01*
X2270Y3656D01*
X2929Y2929D01*
X3656Y2270D01*
X4444Y1685D01*
X5286Y1181D01*
X6173Y761D01*
X7097Y431D01*
X8049Y192D01*
X9020Y48D01*
X10000Y0D01*
Y130000D02*
X9020Y129952D01*
X8049Y129808D01*
X7097Y129569D01*
X6173Y129239D01*
X5286Y128819D01*
X4444Y128315D01*
X3656Y127730D01*
X2929Y127071D01*
X2270Y126344D01*
X1685Y125556D01*
X1181Y124714D01*
X761Y123827D01*
X431Y122903D01*
X192Y121951D01*
X48Y120980D01*
X0Y120000D01*
X10000Y130000D02*
X60000D01*
X70000Y10000D02*
Y120000D01*
X10000Y0D02*
X60000D01*
X0Y10000D02*
Y120000D01*
D56*
X50354Y111976D02*
Y129693D01*
X19646Y111976D02*
Y129693D01*
Y111976D02*
X50354D01*
X19646Y129693D02*
X50354D01*
X56961Y104563D02*
Y112437D01*
X52039D02*
X56961D01*
X52039Y104563D02*
Y112437D01*
Y104563D02*
X56961D01*
X70500Y13500D02*
Y114500D01*
X59500D02*
X70500D01*
X59500Y13500D02*
X70500D01*
X59500D02*
Y114500D01*
X10500Y13500D02*
Y114500D01*
X-500D02*
X10500D01*
X-500Y13500D02*
X10500D01*
X-500D02*
Y114500D01*
X5563Y118039D02*
X13437D01*
Y122961D01*
X5563D02*
X13437D01*
X5563Y118039D02*
Y122961D01*
X17937Y68799D02*
X35063D01*
Y56201D02*
Y68799D01*
X17937Y56201D02*
X35063D01*
X17937D02*
Y68799D01*
X24461Y72063D02*
Y79937D01*
X19539D02*
X24461D01*
X19539Y72063D02*
Y79937D01*
Y72063D02*
X24461D01*
X23063Y78539D02*
X30937D01*
X23063D02*
Y83461D01*
X30937D01*
Y78539D02*
Y83461D01*
X39063D02*
X46937D01*
Y78539D02*
Y83461D01*
X39063Y78539D02*
X46937D01*
X39063D02*
Y83461D01*
X43894Y50539D02*
X51768D01*
X43894D02*
Y55461D01*
X51768D01*
Y50539D02*
Y55461D01*
X58630Y90941D02*
Y96059D01*
X47370D02*
X58630D01*
X47370Y90941D02*
Y96059D01*
Y90941D02*
X58630D01*
X11016Y91268D02*
X13575Y93827D01*
X11016D02*
X18984D01*
Y88906D02*
Y93827D01*
X11016Y88906D02*
X18984D01*
X11016D02*
Y93827D01*
X38937Y113039D02*
Y117961D01*
X31063Y113039D02*
X38937D01*
X31063D02*
Y117961D01*
X38937D01*
X41701Y29921D02*
X54299D01*
X41701Y20079D02*
Y29921D01*
Y20079D02*
X54299D01*
Y29921D01*
X56063Y119539D02*
Y124461D01*
Y119539D02*
X63937D01*
Y124461D01*
X56063D02*
X63937D01*
X23063Y86539D02*
X30937D01*
X23063D02*
Y91461D01*
X30937D01*
Y86539D02*
Y91461D01*
X29295Y86539D02*
X30937Y88181D01*
X39063Y89819D02*
X40705Y91461D01*
X39063Y86539D02*
Y91461D01*
Y86539D02*
X46937D01*
Y91461D01*
X39063D02*
X46937D01*
X15354Y27323D02*
Y42677D01*
X34646D01*
Y27323D02*
Y42677D01*
X15354Y27323D02*
X34646D01*
X15354Y32323D02*
X20354Y27323D01*
X19882Y105512D02*
X50118D01*
X19882Y94488D02*
X50118D01*
X19882D02*
Y105512D01*
X50118Y94488D02*
Y105512D01*
X42488Y56882D02*
Y77118D01*
X53512Y56882D02*
Y77118D01*
X42488Y56882D02*
X53512D01*
X42488Y77118D02*
X53512D01*
X9382Y13512D02*
X39618D01*
X9382Y2488D02*
X39618D01*
X9382D02*
Y13512D01*
X39618Y2488D02*
Y13512D01*
X41882Y2488D02*
X62118D01*
X41882Y13512D02*
X62118D01*
Y2488D02*
Y13512D01*
X41882Y2488D02*
Y13512D01*
X31063Y89039D02*
Y93961D01*
X38937D01*
Y89039D02*
Y93961D01*
X31063Y89039D02*
X38937D01*
X31063Y81039D02*
Y85961D01*
X38937D01*
Y81039D02*
Y85961D01*
X31063Y81039D02*
X38937D01*
X64268Y118039D02*
Y122961D01*
X56394Y118039D02*
X64268D01*
X56394D02*
Y122961D01*
X64268D01*
X11539Y72063D02*
X16461D01*
X11539D02*
Y79937D01*
X16461D01*
Y72063D02*
Y79937D01*
X13039Y105063D02*
X17961D01*
X13039D02*
Y112937D01*
X17961D01*
Y105063D02*
Y112937D01*
X51937Y33539D02*
Y38461D01*
X44063D02*
X51937D01*
X44063Y33539D02*
Y38461D01*
Y33539D02*
X51937D01*
X51937Y41039D02*
Y45961D01*
X44063D02*
X51937D01*
X44063Y41039D02*
Y45961D01*
Y41039D02*
X51937D01*
M02*
