M48
;Layer_Color=9474304
;FILE_FORMAT=2:4
INCH,TZ
;TYPE=PLATED
T1F00S00C0.0079
T2F00S00C0.0276
T3F00S00C0.0354
T4F00S00C0.0523
%
T01
X1220Y1850
X1540Y3753
X2677Y3268
X3386
X4449Y3071
X3898Y2441
X4094Y787
X2992Y1142
X5039Y1299
X4528Y4606
X5792Y4265
Y3438
X5748Y2402
X5792Y5013
Y5761
X5595Y6470
X5805Y7234
Y8100
X6063Y8110
Y9173
X5792Y9226
X5555Y10171
X4624Y9911
X4414Y9183
X4388Y8337
X3600Y9000
X2794Y9183
X2813Y8337
X1976Y8392
X1579Y8714
X1750Y9200
X1894Y10919
X3154Y10131
X3307Y7323
X3898
X3941Y6352
X2957
X2918Y5368
X4585Y5620
X1579Y6352
X1474Y7392
X5280Y11706
T02
X2645Y11537
X4555
T03
X1450Y800
X2450
X3450
X4700
X600Y2800
Y3800
Y4800
X6600
Y3800
Y2800
X5700Y800
X6600Y5800
Y6800
Y7800
Y8800
Y9800
X6050Y10850
Y11850
X4600Y10450
X3600
X2600
X600Y9800
Y8800
Y7800
Y6800
Y5800
T04
X2183Y12580
X5017
M30
