M48
;Layer_Color=9474304
;FILE_FORMAT=2:4
INCH,TZ
;TYPE=PLATED
T1F00S00C0.0079
T3F00S00C0.0256
T4F00S00C0.0354
%
T01
X2300Y1300
X3050
X4100Y1250
X4900Y1300
X4800Y2500
X3950Y2850
X4000Y3550
Y4350
X3550Y3950
X4800
X2650Y3400
X2750Y2850
X2250
X1800Y3400
X1150
X5600Y3600
Y4350
Y5300
X5650Y6250
X5900Y8400
X5581Y9752
X5850Y10400
Y11300
X6500Y11600
X6050Y12100
X3200Y11900
X2000Y11300
X1550Y10800
X1750Y10000
X1250
X1500Y9150
X1400Y7500
X2200
X2650Y7750
X3469Y8524
X4300Y8750
Y8000
X4000Y7050
X3900Y6650
X3200Y5400
X1350
X1800Y6250
X3050Y9600
X4000
X5350Y8950
X1400Y12500
X500Y11650
T03
X2545Y11257
X4455
T04
X1450Y800
X2450
X3450
X4700
X500Y1900
Y2900
Y3900
X6500
Y2900
Y1900
X5700Y800
X6500Y4900
Y5900
Y6900
Y7900
Y8900
Y9900
Y10900
X4500Y10000
X3500
X2500
X500Y9900
Y8900
Y7900
Y6900
Y5900
Y4900
X4800Y6200
Y7200
X500Y10900
M30
