G04*
G04 #@! TF.GenerationSoftware,Altium Limited,Altium Designer,22.3.1 (43)*
G04*
G04 Layer_Color=32896*
%FSLAX25Y25*%
%MOIN*%
G70*
G04*
G04 #@! TF.SameCoordinates,84E4D32D-4FF1-4D47-81BD-E9999B9B3B43*
G04*
G04*
G04 #@! TF.FilePolarity,Positive*
G04*
G01*
G75*
%ADD10C,0.00787*%
%ADD12C,0.00600*%
D10*
X47917Y67094D02*
X50083D01*
Y78905D01*
X47917D02*
X50083D01*
X47917Y67094D02*
Y78905D01*
X41618Y67094D02*
X46539D01*
X21917Y78905D02*
X24083D01*
X21917Y67094D02*
Y78905D01*
Y67094D02*
X24083D01*
Y78905D01*
X25461D02*
X30382D01*
X47630Y39248D02*
X51370D01*
X47630Y27752D02*
Y39248D01*
Y27752D02*
X51370D01*
Y39248D01*
X52748Y39406D02*
X56094D01*
X39031Y53500D02*
X42968D01*
X49031Y53500D02*
X52969D01*
X49031Y92000D02*
X52969D01*
X39031Y92000D02*
X42968D01*
X19031Y53500D02*
X22968D01*
X29032Y53500D02*
X32969D01*
X29032Y92000D02*
X32969D01*
X19031Y92000D02*
X22968D01*
D12*
X52124Y26468D02*
Y22532D01*
X50156D01*
X49500Y23188D01*
Y25812D01*
X50156Y26468D01*
X52124D01*
X48188Y22532D02*
X46876D01*
X47532D01*
Y26468D01*
X48188Y25812D01*
X52920Y65468D02*
X51608D01*
X52264D01*
Y61532D01*
X52920D01*
X51608D01*
X47016Y64812D02*
X47672Y65468D01*
X48984D01*
X49640Y64812D01*
Y62188D01*
X48984Y61532D01*
X47672D01*
X47016Y62188D01*
X45704Y64812D02*
X45048Y65468D01*
X43736D01*
X43080Y64812D01*
Y64156D01*
X43736Y63500D01*
X44392D01*
X43736D01*
X43080Y62844D01*
Y62188D01*
X43736Y61532D01*
X45048D01*
X45704Y62188D01*
X28920Y65968D02*
X27608D01*
X28264D01*
Y62032D01*
X28920D01*
X27608D01*
X23016Y65312D02*
X23672Y65968D01*
X24984D01*
X25640Y65312D01*
Y62688D01*
X24984Y62032D01*
X23672D01*
X23016Y62688D01*
X19080Y62032D02*
X21704D01*
X19080Y64656D01*
Y65312D01*
X19736Y65968D01*
X21048D01*
X21704Y65312D01*
X42640Y44312D02*
X43296Y44968D01*
X44608D01*
X45264Y44312D01*
Y41688D01*
X44608Y41032D01*
X43296D01*
X42640Y41688D01*
X41328Y41032D02*
X40016D01*
X40672D01*
Y44968D01*
X41328Y44312D01*
X38048Y41032D02*
X36736D01*
X37392D01*
Y44968D01*
X38048Y44312D01*
X54296D02*
X54952Y44968D01*
X56264D01*
X56920Y44312D01*
Y41688D01*
X56264Y41032D01*
X54952D01*
X54296Y41688D01*
X52984Y41032D02*
X51672D01*
X52328D01*
Y44968D01*
X52984Y44312D01*
X49704D02*
X49048Y44968D01*
X47736D01*
X47080Y44312D01*
Y41688D01*
X47736Y41032D01*
X49048D01*
X49704Y41688D01*
Y44312D01*
X51656Y83312D02*
X52312Y83968D01*
X53624D01*
X54280Y83312D01*
Y80688D01*
X53624Y80032D01*
X52312D01*
X51656Y80688D01*
X50344D02*
X49688Y80032D01*
X48376D01*
X47720Y80688D01*
Y83312D01*
X48376Y83968D01*
X49688D01*
X50344Y83312D01*
Y82656D01*
X49688Y82000D01*
X47720D01*
X41656Y83312D02*
X42312Y83968D01*
X43624D01*
X44280Y83312D01*
Y80688D01*
X43624Y80032D01*
X42312D01*
X41656Y80688D01*
X40344Y83312D02*
X39688Y83968D01*
X38376D01*
X37720Y83312D01*
Y82656D01*
X38376Y82000D01*
X37720Y81344D01*
Y80688D01*
X38376Y80032D01*
X39688D01*
X40344Y80688D01*
Y81344D01*
X39688Y82000D01*
X40344Y82656D01*
Y83312D01*
X39688Y82000D02*
X38376D01*
X21656Y44312D02*
X22312Y44968D01*
X23624D01*
X24280Y44312D01*
Y41688D01*
X23624Y41032D01*
X22312D01*
X21656Y41688D01*
X20344Y44968D02*
X17720D01*
Y44312D01*
X20344Y41688D01*
Y41032D01*
X31656Y44312D02*
X32312Y44968D01*
X33624D01*
X34280Y44312D01*
Y41688D01*
X33624Y41032D01*
X32312D01*
X31656Y41688D01*
X27720Y44968D02*
X29032Y44312D01*
X30344Y43000D01*
Y41688D01*
X29688Y41032D01*
X28376D01*
X27720Y41688D01*
Y42344D01*
X28376Y43000D01*
X30344D01*
X31656Y83312D02*
X32312Y83968D01*
X33624D01*
X34280Y83312D01*
Y80688D01*
X33624Y80032D01*
X32312D01*
X31656Y80688D01*
X27720Y83968D02*
X30344D01*
Y82000D01*
X29032Y82656D01*
X28376D01*
X27720Y82000D01*
Y80688D01*
X28376Y80032D01*
X29688D01*
X30344Y80688D01*
X21656Y83312D02*
X22312Y83968D01*
X23624D01*
X24280Y83312D01*
Y80688D01*
X23624Y80032D01*
X22312D01*
X21656Y80688D01*
X18376Y80032D02*
Y83968D01*
X20344Y82000D01*
X17720D01*
M02*
