G04*
G04 #@! TF.GenerationSoftware,Altium Limited,Altium Designer,22.5.1 (42)*
G04*
G04 Layer_Color=65535*
%FSLAX25Y25*%
%MOIN*%
G70*
G04*
G04 #@! TF.SameCoordinates,C3C7CF66-0B5B-4541-851D-C3C27CC74C65*
G04*
G04*
G04 #@! TF.FilePolarity,Positive*
G04*
G01*
G75*
%ADD10C,0.00787*%
%ADD11C,0.00602*%
%ADD12C,0.00598*%
%ADD13C,0.00600*%
%ADD14C,0.00000*%
D10*
X55087Y32136D02*
X54697D01*
X54689D02*
X55087D01*
X55087D02*
X54697D01*
X50354Y111976D02*
Y118669D01*
X19646Y111976D02*
X22008D01*
X47992D02*
X50354D01*
X19646D02*
Y118669D01*
X21776Y68799D02*
X31224D01*
X21776Y56201D02*
X31224D01*
X17937Y60925D02*
Y64075D01*
X35063Y60925D02*
Y64075D01*
X27000Y79031D02*
Y82968D01*
X43000Y79031D02*
Y82968D01*
X47831Y51032D02*
Y54969D01*
X60000Y120031D02*
Y123969D01*
X26606Y85063D02*
X34874D01*
Y92937D01*
X26606Y92937D02*
X34874D01*
X35126Y85063D02*
X43394D01*
X35126Y85063D02*
Y92937D01*
X43394D01*
X15354Y28701D02*
Y41299D01*
X34646D01*
Y28701D02*
Y41299D01*
X15354Y28701D02*
X34646D01*
X14842Y21319D02*
Y27323D01*
X19882Y94488D02*
Y105512D01*
X22244D02*
X50118D01*
X19882Y94488D02*
X50118D01*
Y105512D01*
X42488Y56882D02*
X53512D01*
X42488Y59244D02*
Y77118D01*
X53512Y56882D02*
Y77118D01*
X42488D02*
X53512D01*
X9382Y2488D02*
Y13512D01*
X11744D02*
X39618D01*
X9382Y2488D02*
X39618D01*
Y13512D01*
X62118Y2488D02*
Y13512D01*
X41882Y2488D02*
X59756D01*
X41882Y13512D02*
X62118D01*
X41882Y2488D02*
Y13512D01*
X48000Y34032D02*
Y37969D01*
X48000Y41532D02*
Y45469D01*
D11*
X10118Y100226D02*
X9462Y99570D01*
Y98258D01*
X10118Y97602D01*
X12742D01*
X13398Y98258D01*
Y99570D01*
X12742Y100226D01*
X11430D01*
Y98914D01*
X10118Y80226D02*
X9462Y79570D01*
Y78258D01*
X10118Y77602D01*
X12742D01*
X13398Y78258D01*
Y79570D01*
X12742Y80226D01*
X11430D01*
Y78914D01*
X10118Y21226D02*
X9462Y20570D01*
Y19258D01*
X10118Y18602D01*
X12742D01*
X13398Y19258D01*
Y20570D01*
X12742Y21226D01*
X11430D01*
Y19914D01*
X57118Y22226D02*
X56462Y21570D01*
Y20258D01*
X57118Y19602D01*
X59742D01*
X60398Y20258D01*
Y21570D01*
X59742Y22226D01*
X58430D01*
Y20914D01*
X10118Y61226D02*
X9462Y60570D01*
Y59258D01*
X10118Y58602D01*
X12742D01*
X13398Y59258D01*
Y60570D01*
X12742Y61226D01*
X11430D01*
Y59914D01*
X57118Y61226D02*
X56462Y60570D01*
Y59258D01*
X57118Y58602D01*
X59742D01*
X60398Y59258D01*
Y60570D01*
X59742Y61226D01*
X58430D01*
Y59914D01*
X56462Y65602D02*
X59086D01*
X60398Y66914D01*
X59086Y68226D01*
X56462D01*
X57118Y69538D02*
X56462Y70194D01*
Y71506D01*
X57118Y72162D01*
X57774D01*
X58430Y71506D01*
X59086Y72162D01*
X59742D01*
X60398Y71506D01*
Y70194D01*
X59742Y69538D01*
X59086D01*
X58430Y70194D01*
X57774Y69538D01*
X57118D01*
X58430Y70194D02*
Y71506D01*
X9462Y65602D02*
X12086D01*
X13398Y66914D01*
X12086Y68226D01*
X9462D01*
X10118Y69538D02*
X9462Y70194D01*
Y71506D01*
X10118Y72162D01*
X10774D01*
X11430Y71506D01*
X12086Y72162D01*
X12742D01*
X13398Y71506D01*
Y70194D01*
X12742Y69538D01*
X12086D01*
X11430Y70194D01*
X10774Y69538D01*
X10118D01*
X11430Y70194D02*
Y71506D01*
X60398Y27602D02*
X56462D01*
Y29570D01*
X57118Y30226D01*
X58430D01*
X59086Y29570D01*
Y27602D01*
Y28914D02*
X60398Y30226D01*
X57118Y86602D02*
X56462Y87258D01*
Y88570D01*
X57118Y89226D01*
X57774D01*
X58430Y88570D01*
Y87914D01*
Y88570D01*
X59086Y89226D01*
X59742D01*
X60398Y88570D01*
Y87258D01*
X59742Y86602D01*
X56462Y90538D02*
X59086D01*
X60398Y91850D01*
X59086Y93162D01*
X56462D01*
X60398Y34602D02*
X57774D01*
X56462Y35914D01*
X57774Y37226D01*
X60398D01*
X58430D01*
Y34602D01*
X57118Y38538D02*
X56462Y39194D01*
Y40506D01*
X57118Y41162D01*
X57774D01*
X58430Y40506D01*
X59086Y41162D01*
X59742D01*
X60398Y40506D01*
Y39194D01*
X59742Y38538D01*
X59086D01*
X58430Y39194D01*
X57774Y38538D01*
X57118D01*
X58430Y39194D02*
Y40506D01*
X57118Y80226D02*
X56462Y79570D01*
Y78258D01*
X57118Y77602D01*
X59742D01*
X60398Y78258D01*
Y79570D01*
X59742Y80226D01*
X58430D01*
Y78914D01*
X10118Y85602D02*
X9462Y86258D01*
Y87570D01*
X10118Y88226D01*
X10774D01*
X11430Y87570D01*
Y86914D01*
Y87570D01*
X12086Y88226D01*
X12742D01*
X13398Y87570D01*
Y86258D01*
X12742Y85602D01*
X9462Y89538D02*
X12086D01*
X13398Y90850D01*
X12086Y92162D01*
X9462D01*
X13398Y22602D02*
X9462D01*
Y24570D01*
X10118Y25226D01*
X11430D01*
X12086Y24570D01*
Y22602D01*
X9462Y26538D02*
X13398D01*
Y28506D01*
X12742Y29162D01*
X12086D01*
X11430Y28506D01*
Y26538D01*
Y28506D01*
X10774Y29162D01*
X10118D01*
X9462Y28506D01*
Y26538D01*
Y30474D02*
Y33098D01*
X10118D01*
X12742Y30474D01*
X13398D01*
X60398Y44602D02*
X57774D01*
X56462Y45914D01*
X57774Y47226D01*
X60398D01*
X58430D01*
Y44602D01*
X60398Y48538D02*
Y49850D01*
Y49194D01*
X56462D01*
X57118Y48538D01*
X60398Y54442D02*
Y51818D01*
X57774Y54442D01*
X57118D01*
X56462Y53786D01*
Y52474D01*
X57118Y51818D01*
X56462Y108226D02*
Y105602D01*
X58430D01*
X57774Y106914D01*
Y107570D01*
X58430Y108226D01*
X59742D01*
X60398Y107570D01*
Y106258D01*
X59742Y105602D01*
X56462Y109538D02*
X59086D01*
X60398Y110850D01*
X59086Y112162D01*
X56462D01*
X57118Y100226D02*
X56462Y99570D01*
Y98258D01*
X57118Y97602D01*
X59742D01*
X60398Y98258D01*
Y99570D01*
X59742Y100226D01*
X58430D01*
Y98914D01*
X9462Y108226D02*
Y105602D01*
X11430D01*
X10774Y106914D01*
Y107570D01*
X11430Y108226D01*
X12742D01*
X13398Y107570D01*
Y106258D01*
X12742Y105602D01*
X9462Y109538D02*
X12086D01*
X13398Y110850D01*
X12086Y112162D01*
X9462D01*
Y34602D02*
X13398D01*
Y36570D01*
X12742Y37226D01*
X10118D01*
X9462Y36570D01*
Y34602D01*
Y38538D02*
Y39850D01*
Y39194D01*
X13398D01*
Y38538D01*
Y39850D01*
X9462Y43786D02*
Y42474D01*
X10118Y41818D01*
X12742D01*
X13398Y42474D01*
Y43786D01*
X12742Y44442D01*
X10118D01*
X9462Y43786D01*
X10118Y48226D02*
X9462Y47570D01*
Y46258D01*
X10118Y45602D01*
X10774D01*
X11430Y46258D01*
Y47570D01*
X12086Y48226D01*
X12742D01*
X13398Y47570D01*
Y46258D01*
X12742Y45602D01*
X10118Y52162D02*
X9462Y51506D01*
Y50194D01*
X10118Y49538D01*
X12742D01*
X13398Y50194D01*
Y51506D01*
X12742Y52162D01*
X9462Y53474D02*
X13398D01*
X12086D01*
X9462Y56098D01*
X11430Y54130D01*
X13398Y56098D01*
D12*
X12498Y17222D02*
Y14598D01*
Y15910D01*
X13154Y16566D01*
X13810Y17222D01*
X14466D01*
X18402Y14598D02*
X17090D01*
X16434Y15254D01*
Y16566D01*
X17090Y17222D01*
X18402D01*
X19058Y16566D01*
Y15910D01*
X16434D01*
X20370Y17222D02*
X21682Y14598D01*
X22994Y17222D01*
X28241Y14598D02*
X29553D01*
X28897D01*
Y18534D01*
X28241Y17878D01*
X31521Y14598D02*
Y15254D01*
X32177D01*
Y14598D01*
X31521D01*
X34801Y17878D02*
X35457Y18534D01*
X36769D01*
X37425Y17878D01*
Y15254D01*
X36769Y14598D01*
X35457D01*
X34801Y15254D01*
Y17878D01*
D13*
X54968Y78376D02*
X51032D01*
Y80344D01*
X51688Y81000D01*
X53000D01*
X53656Y80344D01*
Y78376D01*
Y79688D02*
X54968Y81000D01*
Y82312D02*
Y83624D01*
Y82968D01*
X51032D01*
X51688Y82312D01*
X23000Y54312D02*
X22344Y54968D01*
X21032D01*
X20376Y54312D01*
Y53656D01*
X21032Y53000D01*
X22344D01*
X23000Y52344D01*
Y51688D01*
X22344Y51032D01*
X21032D01*
X20376Y51688D01*
X24312Y51032D02*
X25624D01*
X24968D01*
Y54968D01*
X24312Y54312D01*
X45776Y18668D02*
Y18012D01*
X47088Y16700D01*
X48400Y18012D01*
Y18668D01*
X47088Y16700D02*
Y14732D01*
X49712D02*
X51024D01*
X50368D01*
Y18668D01*
X49712Y18012D01*
X15032Y81752D02*
X18968D01*
Y84376D01*
X15032Y85688D02*
X18968D01*
Y87656D01*
X18312Y88312D01*
X15688D01*
X15032Y87656D01*
Y85688D01*
X18968Y92248D02*
Y89624D01*
X16344Y92248D01*
X15688D01*
X15032Y91592D01*
Y90280D01*
X15688Y89624D01*
X36032Y20736D02*
Y22048D01*
Y21392D01*
X39968D01*
Y20736D01*
Y22048D01*
X36688Y26640D02*
X36032Y25984D01*
Y24672D01*
X36688Y24016D01*
X39312D01*
X39968Y24672D01*
Y25984D01*
X39312Y26640D01*
X39968Y27952D02*
Y29264D01*
Y28608D01*
X36032D01*
X36688Y27952D01*
X51032Y84908D02*
X54968D01*
Y87532D01*
X51032Y88844D02*
X54968D01*
Y90812D01*
X54312Y91468D01*
X51688D01*
X51032Y90812D01*
Y88844D01*
X54968Y92780D02*
Y94092D01*
Y93436D01*
X51032D01*
X51688Y92780D01*
X33376Y75312D02*
X32720Y75968D01*
X31408D01*
X30752Y75312D01*
Y72688D01*
X31408Y72032D01*
X32720D01*
X33376Y72688D01*
X34688Y72032D02*
Y75968D01*
X37312Y72032D01*
Y75968D01*
X38624Y75312D02*
X39280Y75968D01*
X40592D01*
X41248Y75312D01*
Y74656D01*
X40592Y74000D01*
X39936D01*
X40592D01*
X41248Y73344D01*
Y72688D01*
X40592Y72032D01*
X39280D01*
X38624Y72688D01*
X64188Y9032D02*
X63532Y8376D01*
Y7064D01*
X64188Y6408D01*
X66812D01*
X67468Y7064D01*
Y8376D01*
X66812Y9032D01*
X67468Y10344D02*
X63532D01*
X67468Y12968D01*
X63532D01*
X67468Y14280D02*
Y15592D01*
Y14936D01*
X63532D01*
X64188Y14280D01*
X58032Y117312D02*
X57376Y117968D01*
X56064D01*
X55408Y117312D01*
Y116656D01*
X56064Y116000D01*
X57376D01*
X58032Y115344D01*
Y114688D01*
X57376Y114032D01*
X56064D01*
X55408Y114688D01*
X59344Y117968D02*
Y114032D01*
X61312D01*
X61968Y114688D01*
Y115344D01*
X61312Y116000D01*
X59344D01*
X61312D01*
X61968Y116656D01*
Y117312D01*
X61312Y117968D01*
X59344D01*
X63280Y114032D02*
X64592D01*
X63936D01*
Y117968D01*
X63280Y117312D01*
X19720Y72032D02*
Y75968D01*
X21688D01*
X22344Y75312D01*
Y74000D01*
X21688Y73344D01*
X19720D01*
X21032D02*
X22344Y72032D01*
X26280D02*
X23656D01*
X26280Y74656D01*
Y75312D01*
X25624Y75968D01*
X24312D01*
X23656Y75312D01*
X14688Y114376D02*
X14032Y113720D01*
Y112408D01*
X14688Y111752D01*
X17312D01*
X17968Y112408D01*
Y113720D01*
X17312Y114376D01*
X17968Y115688D02*
X14032D01*
X17968Y118312D01*
X14032D01*
Y119624D02*
Y122248D01*
X14688D01*
X17312Y119624D01*
X17968D01*
X15188Y97876D02*
X14532Y97220D01*
Y95908D01*
X15188Y95252D01*
X17812D01*
X18468Y95908D01*
Y97220D01*
X17812Y97876D01*
X18468Y99188D02*
X14532D01*
X18468Y101812D01*
X14532D01*
Y105748D02*
X15188Y104436D01*
X16500Y103124D01*
X17812D01*
X18468Y103780D01*
Y105092D01*
X17812Y105748D01*
X17156D01*
X16500Y105092D01*
Y103124D01*
X4688Y7376D02*
X4032Y6720D01*
Y5408D01*
X4688Y4752D01*
X7312D01*
X7968Y5408D01*
Y6720D01*
X7312Y7376D01*
X7968Y8688D02*
X4032D01*
X7968Y11312D01*
X4032D01*
X7968Y15248D02*
Y12624D01*
X5344Y15248D01*
X4688D01*
X4032Y14592D01*
Y13280D01*
X4688Y12624D01*
X36688Y34844D02*
X36032Y34188D01*
Y32876D01*
X36688Y32220D01*
X39312D01*
X39968Y32876D01*
Y34188D01*
X39312Y34844D01*
X36688Y36156D02*
X36032Y36812D01*
Y38124D01*
X36688Y38780D01*
X37344D01*
X38000Y38124D01*
Y37468D01*
Y38124D01*
X38656Y38780D01*
X39312D01*
X39968Y38124D01*
Y36812D01*
X39312Y36156D01*
X36688Y42844D02*
X36032Y42188D01*
Y40876D01*
X36688Y40220D01*
X39312D01*
X39968Y40876D01*
Y42188D01*
X39312Y42844D01*
X39968Y46780D02*
Y44156D01*
X37344Y46780D01*
X36688D01*
X36032Y46124D01*
Y44812D01*
X36688Y44156D01*
X36519Y53000D02*
X35863Y52344D01*
Y51032D01*
X36519Y50376D01*
X39143D01*
X39799Y51032D01*
Y52344D01*
X39143Y53000D01*
X39799Y54312D02*
Y55624D01*
Y54968D01*
X35863D01*
X36519Y54312D01*
D14*
X70000Y120000D02*
X69952Y120980D01*
X69808Y121951D01*
X69569Y122903D01*
X69239Y123827D01*
X68819Y124714D01*
X68315Y125556D01*
X67730Y126344D01*
X67071Y127071D01*
X66344Y127730D01*
X65556Y128315D01*
X64714Y128819D01*
X63827Y129239D01*
X62903Y129569D01*
X61951Y129808D01*
X60980Y129952D01*
X60000Y130000D01*
Y0D02*
X60980Y48D01*
X61951Y192D01*
X62903Y431D01*
X63827Y761D01*
X64714Y1181D01*
X65556Y1685D01*
X66344Y2270D01*
X67071Y2929D01*
X67730Y3656D01*
X68315Y4444D01*
X68819Y5286D01*
X69239Y6173D01*
X69569Y7097D01*
X69808Y8049D01*
X69952Y9020D01*
X70000Y10000D01*
X0D02*
X48Y9020D01*
X192Y8049D01*
X431Y7097D01*
X761Y6173D01*
X1181Y5286D01*
X1685Y4444D01*
X2270Y3656D01*
X2929Y2929D01*
X3656Y2270D01*
X4444Y1685D01*
X5286Y1181D01*
X6173Y761D01*
X7097Y431D01*
X8049Y192D01*
X9020Y48D01*
X10000Y0D01*
Y130000D02*
X9020Y129952D01*
X8049Y129808D01*
X7097Y129569D01*
X6173Y129239D01*
X5286Y128819D01*
X4444Y128315D01*
X3656Y127730D01*
X2929Y127071D01*
X2270Y126344D01*
X1685Y125556D01*
X1181Y124714D01*
X761Y123827D01*
X431Y122903D01*
X192Y121951D01*
X48Y120980D01*
X0Y120000D01*
X10000Y130000D02*
X60000D01*
X70000Y10000D02*
Y120000D01*
X10000Y0D02*
X60000D01*
X0Y10000D02*
Y120000D01*
M02*
