G04*
G04 #@! TF.GenerationSoftware,Altium Limited,Altium Designer,22.5.1 (42)*
G04*
G04 Layer_Physical_Order=1*
G04 Layer_Color=255*
%FSLAX25Y25*%
%MOIN*%
G70*
G04*
G04 #@! TF.SameCoordinates,C3C7CF66-0B5B-4541-851D-C3C27CC74C65*
G04*
G04*
G04 #@! TF.FilePolarity,Positive*
G04*
G01*
G75*
%ADD14C,0.00000*%
%ADD25R,0.01575X0.07087*%
%ADD26R,0.04921X0.02559*%
%ADD27R,0.04724X0.05512*%
%ADD28R,0.05512X0.04724*%
%ADD29R,0.02559X0.06791*%
%ADD30C,0.01000*%
%ADD31C,0.02000*%
%ADD32C,0.01968*%
%ADD33C,0.01500*%
%ADD34C,0.04331*%
%ADD35O,0.04331X0.07284*%
%ADD36C,0.05906*%
%ADD37R,0.05906X0.05906*%
%ADD38R,0.05906X0.05906*%
%ADD39C,0.01772*%
G36*
X62683Y128844D02*
X64356Y128150D01*
X65863Y127144D01*
X66963Y126043D01*
X66756Y125543D01*
X61181D01*
Y122822D01*
X60500D01*
X59803Y122684D01*
X59319Y122361D01*
X58819Y122533D01*
Y125543D01*
X52520D01*
X52520Y125543D01*
Y125543D01*
X52084Y125720D01*
X51938Y126073D01*
X51431Y126734D01*
X50770Y127241D01*
X50173Y127488D01*
Y123000D01*
X49173D01*
Y122000D01*
X45981D01*
Y121524D01*
X46089Y120697D01*
X46408Y119927D01*
X46655Y119606D01*
X46408Y119106D01*
X43291D01*
X42594Y118967D01*
X42003Y118572D01*
X42003Y118572D01*
X39541Y116110D01*
X31669D01*
Y116323D01*
X30882D01*
Y116110D01*
X30866D01*
Y111779D01*
Y107449D01*
X30882D01*
Y107236D01*
X31669D01*
Y107449D01*
X41693D01*
Y110266D01*
X42193Y110435D01*
X42290Y110309D01*
X42951Y109802D01*
X43547Y109555D01*
Y112567D01*
X44547D01*
Y113567D01*
X47559D01*
X47312Y114163D01*
X46805Y114824D01*
X46627Y114961D01*
X46797Y115461D01*
X51346D01*
X51346Y115461D01*
X52044Y115600D01*
X52635Y115995D01*
X55097Y118457D01*
X58819D01*
Y119467D01*
X59319Y119640D01*
X59803Y119316D01*
X60500Y119178D01*
X61181D01*
Y118457D01*
X67480D01*
Y124498D01*
X67959Y124643D01*
X68151Y124356D01*
X68844Y122683D01*
X69197Y120906D01*
Y120000D01*
Y112844D01*
X68740Y112740D01*
X68697Y112740D01*
X61260D01*
Y105260D01*
X68697D01*
X68740Y105260D01*
X69197Y105156D01*
Y100503D01*
X68697Y100403D01*
X68453Y100993D01*
X67819Y101819D01*
X66993Y102453D01*
X66032Y102851D01*
X66000Y102855D01*
Y99000D01*
Y95145D01*
X66032Y95149D01*
X66993Y95547D01*
X67819Y96181D01*
X68453Y97007D01*
X68697Y97597D01*
X69197Y97497D01*
Y89604D01*
X68697Y89571D01*
X68644Y89976D01*
X68267Y90886D01*
X67668Y91667D01*
X66886Y92267D01*
X65976Y92644D01*
X65000Y92772D01*
X64024Y92644D01*
X63114Y92267D01*
X62332Y91667D01*
X61733Y90886D01*
X61707Y90822D01*
X55113D01*
X51541Y94395D01*
X50950Y94790D01*
X50252Y94928D01*
X50252Y94928D01*
X28822D01*
Y96876D01*
X28822Y96876D01*
X28775Y97113D01*
Y98047D01*
X28775Y98047D01*
X28740Y98223D01*
Y103740D01*
X21260D01*
Y96260D01*
X25178D01*
Y93000D01*
X25106Y92543D01*
X19520D01*
Y85457D01*
X21357D01*
Y84543D01*
X19520D01*
Y77457D01*
X25819D01*
Y83675D01*
X26281Y83866D01*
X28181Y81966D01*
Y77457D01*
X34480D01*
Y84543D01*
X30934D01*
X30780Y84744D01*
X31027Y85244D01*
X34693D01*
Y88000D01*
X31331D01*
Y90000D01*
X34693D01*
Y91284D01*
X35307D01*
Y90000D01*
X38669D01*
X42031D01*
Y91284D01*
X44181D01*
Y85457D01*
X46018D01*
Y84543D01*
X44181D01*
Y77906D01*
X44181Y77658D01*
X43685Y77447D01*
X41819Y79313D01*
Y84543D01*
X35520D01*
Y77457D01*
X39963D01*
X44381Y73038D01*
X44356Y72976D01*
X44228Y72000D01*
X44356Y71024D01*
X44733Y70114D01*
X45333Y69332D01*
X46114Y68733D01*
X47024Y68356D01*
X48000Y68228D01*
X48976Y68356D01*
X49886Y68733D01*
X50668Y69332D01*
X51267Y70114D01*
X51644Y71024D01*
X51772Y72000D01*
X51644Y72976D01*
X51267Y73886D01*
X50668Y74668D01*
X49886Y75267D01*
X48976Y75644D01*
X48000Y75772D01*
X47024Y75644D01*
X46114Y75267D01*
X45973Y75159D01*
X44171Y76961D01*
X44382Y77457D01*
X44598Y77457D01*
X50480D01*
Y84543D01*
X48643D01*
Y85457D01*
X50480D01*
Y89647D01*
X50942Y89838D01*
X51921Y88859D01*
X51924Y88847D01*
X52294Y88294D01*
X52847Y87924D01*
X52859Y87922D01*
X53069Y87711D01*
X53069Y87711D01*
X53661Y87316D01*
X54358Y87178D01*
X61707D01*
X61733Y87114D01*
X62332Y86332D01*
X63114Y85733D01*
X64024Y85356D01*
X65000Y85228D01*
X65976Y85356D01*
X66886Y85733D01*
X67668Y86332D01*
X68267Y87114D01*
X68644Y88024D01*
X68697Y88429D01*
X69197Y88396D01*
Y80503D01*
X68697Y80403D01*
X68453Y80993D01*
X67819Y81819D01*
X66993Y82453D01*
X66032Y82851D01*
X66000Y82855D01*
Y79000D01*
Y75145D01*
X66032Y75149D01*
X66993Y75547D01*
X67819Y76181D01*
X68453Y77007D01*
X68697Y77597D01*
X69197Y77497D01*
Y69604D01*
X68697Y69571D01*
X68644Y69976D01*
X68267Y70886D01*
X67668Y71667D01*
X66886Y72267D01*
X65976Y72644D01*
X65000Y72772D01*
X64024Y72644D01*
X63114Y72267D01*
X62332Y71667D01*
X61733Y70886D01*
X61356Y69976D01*
X61228Y69000D01*
X61356Y68024D01*
X61733Y67114D01*
X62332Y66333D01*
X63114Y65733D01*
X64024Y65356D01*
X65000Y65228D01*
X65976Y65356D01*
X66886Y65733D01*
X67668Y66333D01*
X68267Y67114D01*
X68644Y68024D01*
X68697Y68429D01*
X69197Y68396D01*
Y60503D01*
X68697Y60403D01*
X68453Y60993D01*
X67819Y61819D01*
X66993Y62453D01*
X66032Y62851D01*
X66000Y62855D01*
Y59000D01*
Y55145D01*
X66032Y55149D01*
X66993Y55547D01*
X67819Y56181D01*
X68453Y57007D01*
X68697Y57597D01*
X69197Y57497D01*
Y49604D01*
X68697Y49571D01*
X68644Y49976D01*
X68267Y50886D01*
X67668Y51667D01*
X66886Y52267D01*
X65976Y52644D01*
X65000Y52772D01*
X64024Y52644D01*
X63114Y52267D01*
X62332Y51667D01*
X61733Y50886D01*
X61495Y50313D01*
X55524D01*
Y52000D01*
X52161D01*
Y53000D01*
X51161D01*
Y56756D01*
X49313D01*
Y58260D01*
X51740D01*
Y65740D01*
X44260D01*
Y58260D01*
X46687D01*
Y57028D01*
X46650Y56543D01*
X41765D01*
X41638Y56568D01*
X39800D01*
X38311Y58057D01*
Y60335D01*
X31815D01*
Y59580D01*
X21185D01*
Y60335D01*
X14689D01*
Y56201D01*
X21185D01*
Y56955D01*
X23687D01*
Y50254D01*
X20433D01*
Y45950D01*
X20398Y45776D01*
X20433Y45601D01*
Y43744D01*
X20029Y43340D01*
X19567Y43531D01*
Y50254D01*
X15433D01*
Y47383D01*
X8920D01*
X8578Y47864D01*
X8644Y48024D01*
X8772Y49000D01*
X8644Y49976D01*
X8267Y50886D01*
X7667Y51667D01*
X6886Y52267D01*
X5976Y52644D01*
X5000Y52772D01*
X4024Y52644D01*
X3114Y52267D01*
X2332Y51667D01*
X1733Y50886D01*
X1356Y49976D01*
X1303Y49571D01*
X803Y49604D01*
Y57497D01*
X1303Y57597D01*
X1547Y57007D01*
X2181Y56181D01*
X3007Y55547D01*
X3968Y55149D01*
X4000Y55145D01*
Y59000D01*
Y62855D01*
X3968Y62851D01*
X3007Y62453D01*
X2181Y61819D01*
X1547Y60993D01*
X1303Y60403D01*
X803Y60503D01*
Y68396D01*
X1303Y68429D01*
X1356Y68024D01*
X1733Y67114D01*
X2332Y66333D01*
X3114Y65733D01*
X4024Y65356D01*
X5000Y65228D01*
X5976Y65356D01*
X6886Y65733D01*
X7667Y66333D01*
X8267Y67114D01*
X8644Y68024D01*
X8772Y69000D01*
X8644Y69976D01*
X8267Y70886D01*
X7667Y71667D01*
X6886Y72267D01*
X5976Y72644D01*
X5000Y72772D01*
X4024Y72644D01*
X3114Y72267D01*
X2332Y71667D01*
X1733Y70886D01*
X1356Y69976D01*
X1303Y69571D01*
X803Y69604D01*
Y77497D01*
X1303Y77597D01*
X1547Y77007D01*
X2181Y76181D01*
X3007Y75547D01*
X3968Y75149D01*
X4000Y75145D01*
Y79000D01*
Y82855D01*
X3968Y82851D01*
X3007Y82453D01*
X2181Y81819D01*
X1547Y80993D01*
X1303Y80403D01*
X803Y80503D01*
Y88396D01*
X1303Y88429D01*
X1356Y88024D01*
X1733Y87114D01*
X2332Y86332D01*
X3114Y85733D01*
X4024Y85356D01*
X5000Y85228D01*
X5976Y85356D01*
X6886Y85733D01*
X7667Y86332D01*
X8267Y87114D01*
X8644Y88024D01*
X8772Y89000D01*
X8644Y89976D01*
X8267Y90886D01*
X7667Y91667D01*
X6886Y92267D01*
X5976Y92644D01*
X5000Y92772D01*
X4024Y92644D01*
X3114Y92267D01*
X2332Y91667D01*
X1733Y90886D01*
X1356Y89976D01*
X1303Y89571D01*
X803Y89604D01*
Y97497D01*
X1303Y97597D01*
X1547Y97007D01*
X2181Y96181D01*
X3007Y95547D01*
X3968Y95149D01*
X4000Y95145D01*
Y99000D01*
Y102855D01*
X3968Y102851D01*
X3007Y102453D01*
X2181Y101819D01*
X1547Y100993D01*
X1303Y100403D01*
X803Y100503D01*
Y105156D01*
X1260Y105260D01*
X1303Y105260D01*
X8740D01*
Y112740D01*
X1303D01*
X1260Y112740D01*
X803Y112844D01*
Y120000D01*
Y120906D01*
X1156Y122683D01*
X1850Y124356D01*
X2856Y125863D01*
X4137Y127144D01*
X5644Y128150D01*
X7317Y128844D01*
X9094Y129197D01*
X60906D01*
X62683Y128844D01*
D02*
G37*
G36*
X31815Y56201D02*
X36455D01*
X38328Y54328D01*
X38754Y54043D01*
X39256Y53943D01*
X40350D01*
Y50313D01*
X35992D01*
X35060Y51245D01*
X34634Y51529D01*
X34132Y51629D01*
X29629D01*
X29127Y51529D01*
X28701Y51245D01*
X27711Y50254D01*
X26313D01*
Y56955D01*
X31815D01*
Y56201D01*
D02*
G37*
G36*
X69197Y48396D02*
Y39604D01*
X68697Y39571D01*
X68644Y39976D01*
X68267Y40886D01*
X67668Y41668D01*
X66886Y42267D01*
X65976Y42644D01*
X65000Y42772D01*
X64024Y42644D01*
X63450Y42406D01*
X60481Y45375D01*
X60481Y45375D01*
X58631Y47225D01*
X58822Y47687D01*
X61495D01*
X61733Y47114D01*
X62332Y46332D01*
X63114Y45733D01*
X64024Y45356D01*
X65000Y45228D01*
X65976Y45356D01*
X66886Y45733D01*
X67668Y46332D01*
X68267Y47114D01*
X68644Y48024D01*
X68697Y48429D01*
X69197Y48396D01*
D02*
G37*
G36*
X1356Y48024D02*
X1733Y47114D01*
X2332Y46332D01*
X3114Y45733D01*
X4024Y45356D01*
X5000Y45228D01*
X5976Y45356D01*
X6658Y45638D01*
X7153Y45143D01*
X7579Y44858D01*
X8081Y44758D01*
X15433D01*
Y41888D01*
X17923D01*
X18115Y41426D01*
X17002Y40313D01*
X8505D01*
X8267Y40886D01*
X7667Y41668D01*
X6886Y42267D01*
X5976Y42644D01*
X5000Y42772D01*
X4024Y42644D01*
X3114Y42267D01*
X2332Y41668D01*
X1733Y40886D01*
X1356Y39976D01*
X1303Y39571D01*
X803Y39604D01*
Y48396D01*
X1303Y48429D01*
X1356Y48024D01*
D02*
G37*
G36*
X23687Y41500D02*
X23787Y40998D01*
X24072Y40572D01*
X32644Y32000D01*
X31572Y30928D01*
X31287Y30502D01*
X31187Y30000D01*
Y28112D01*
X30433D01*
Y19746D01*
X34567D01*
Y28112D01*
X33813D01*
Y29456D01*
X35044Y30687D01*
X39913D01*
Y29150D01*
X43669D01*
X47425D01*
Y30687D01*
X48787D01*
Y25500D01*
X48787Y25000D01*
X48787D01*
Y25000D01*
X48787D01*
Y18701D01*
X51018D01*
Y12669D01*
X51118Y12167D01*
X51402Y11741D01*
X53260Y9884D01*
Y4260D01*
X60740D01*
Y11740D01*
X55116D01*
X53643Y13213D01*
Y18701D01*
X55874D01*
Y24500D01*
X55874Y25000D01*
X55874D01*
Y25000D01*
X55874D01*
Y30687D01*
X60883D01*
X61426Y30144D01*
X61356Y29976D01*
X61228Y29000D01*
X61356Y28024D01*
X61733Y27114D01*
X62332Y26333D01*
X63114Y25733D01*
X64024Y25356D01*
X65000Y25228D01*
X65976Y25356D01*
X66886Y25733D01*
X67668Y26333D01*
X68267Y27114D01*
X68644Y28024D01*
X68697Y28429D01*
X69197Y28396D01*
Y20503D01*
X68697Y20403D01*
X68453Y20993D01*
X67819Y21819D01*
X66993Y22453D01*
X66032Y22851D01*
X66000Y22855D01*
Y19000D01*
Y15145D01*
X66032Y15149D01*
X66993Y15547D01*
X67819Y16181D01*
X68453Y17007D01*
X68697Y17597D01*
X69197Y17497D01*
Y10000D01*
Y9094D01*
X68844Y7317D01*
X68151Y5644D01*
X67144Y4137D01*
X65863Y2856D01*
X64356Y1850D01*
X62683Y1156D01*
X60906Y803D01*
X9094D01*
X7317Y1156D01*
X5644Y1850D01*
X4137Y2856D01*
X2856Y4137D01*
X1850Y5644D01*
X1156Y7317D01*
X803Y9094D01*
Y10000D01*
Y17497D01*
X1303Y17597D01*
X1547Y17007D01*
X2181Y16181D01*
X3007Y15547D01*
X3968Y15149D01*
X4000Y15145D01*
Y19000D01*
Y22855D01*
X3968Y22851D01*
X3007Y22453D01*
X2181Y21819D01*
X1547Y20993D01*
X1303Y20403D01*
X803Y20503D01*
Y28396D01*
X1303Y28429D01*
X1356Y28024D01*
X1733Y27114D01*
X2332Y26333D01*
X3114Y25733D01*
X4024Y25356D01*
X5000Y25228D01*
X5976Y25356D01*
X6550Y25594D01*
X13187Y18956D01*
Y11740D01*
X10760D01*
Y4260D01*
X18240D01*
Y11696D01*
X18625Y12019D01*
X21094Y9550D01*
X20856Y8976D01*
X20728Y8000D01*
X20856Y7024D01*
X21233Y6114D01*
X21833Y5333D01*
X22614Y4733D01*
X23524Y4356D01*
X24500Y4228D01*
X25476Y4356D01*
X26386Y4733D01*
X27167Y5333D01*
X27767Y6114D01*
X28144Y7024D01*
X28272Y8000D01*
X28144Y8976D01*
X27767Y9886D01*
X27167Y10667D01*
X26386Y11267D01*
X25476Y11644D01*
X24500Y11772D01*
X23524Y11644D01*
X22950Y11406D01*
X18813Y15544D01*
Y19746D01*
X19567D01*
Y28112D01*
X15433D01*
Y21130D01*
X14933Y20923D01*
X8406Y27450D01*
X8644Y28024D01*
X8772Y29000D01*
X8644Y29976D01*
X8267Y30886D01*
X7667Y31668D01*
X6886Y32267D01*
X5976Y32644D01*
X5000Y32772D01*
X4024Y32644D01*
X3114Y32267D01*
X2332Y31668D01*
X1733Y30886D01*
X1356Y29976D01*
X1303Y29571D01*
X803Y29604D01*
Y38396D01*
X1303Y38429D01*
X1356Y38024D01*
X1733Y37114D01*
X2332Y36332D01*
X3114Y35733D01*
X4024Y35356D01*
X5000Y35228D01*
X5976Y35356D01*
X6886Y35733D01*
X7667Y36332D01*
X8267Y37114D01*
X8505Y37687D01*
X17545D01*
X18048Y37787D01*
X18473Y38072D01*
X22289Y41888D01*
X23687D01*
Y41500D01*
D02*
G37*
G36*
X30433Y48557D02*
Y41888D01*
X34567D01*
Y46187D01*
X40520D01*
Y45322D01*
X40000D01*
X39303Y45184D01*
X38711Y44789D01*
X38316Y44197D01*
X38178Y43500D01*
X38316Y42803D01*
X38711Y42211D01*
X39303Y41816D01*
X40000Y41678D01*
X40520D01*
Y39957D01*
X40520D01*
Y39543D01*
X40520D01*
Y37322D01*
X40000D01*
X39303Y37184D01*
X38711Y36789D01*
X38316Y36197D01*
X38178Y35500D01*
X38316Y34803D01*
X38711Y34211D01*
X39303Y33816D01*
X39321Y33813D01*
X39272Y33313D01*
X35044D01*
X26930Y41426D01*
X27122Y41888D01*
X29567D01*
Y48398D01*
X29933Y48764D01*
X30433Y48557D01*
D02*
G37*
G36*
X48968Y44500D02*
X52331D01*
X55693D01*
Y45744D01*
X56193Y45951D01*
X58625Y43519D01*
X61594Y40550D01*
X61356Y39976D01*
X61228Y39000D01*
X61356Y38024D01*
X61733Y37114D01*
X62332Y36332D01*
X63114Y35733D01*
X64024Y35356D01*
X65000Y35228D01*
X65976Y35356D01*
X66886Y35733D01*
X67668Y36332D01*
X68267Y37114D01*
X68644Y38024D01*
X68697Y38429D01*
X69197Y38396D01*
Y29604D01*
X68697Y29571D01*
X68644Y29976D01*
X68267Y30886D01*
X67668Y31668D01*
X66886Y32267D01*
X65976Y32644D01*
X65000Y32772D01*
X64024Y32644D01*
X63114Y32267D01*
X63058Y32225D01*
X62355Y32928D01*
X61929Y33213D01*
X61427Y33313D01*
X55693D01*
Y35000D01*
X52331D01*
X48968D01*
Y33313D01*
X46819D01*
Y39543D01*
X46819D01*
Y39957D01*
X46819D01*
Y46187D01*
X48968D01*
Y44500D01*
D02*
G37*
%LPC*%
G36*
X21827Y127488D02*
Y124000D01*
X24019D01*
Y124476D01*
X23911Y125303D01*
X23592Y126073D01*
X23084Y126734D01*
X22423Y127241D01*
X21827Y127488D01*
D02*
G37*
G36*
X48173D02*
X47577Y127241D01*
X46916Y126734D01*
X46408Y126073D01*
X46089Y125303D01*
X45981Y124476D01*
Y124000D01*
X48173D01*
Y127488D01*
D02*
G37*
G36*
X19827D02*
X19230Y127241D01*
X18569Y126734D01*
X18062Y126073D01*
X17743Y125303D01*
X17634Y124476D01*
Y124000D01*
X19827D01*
Y127488D01*
D02*
G37*
G36*
X14000Y126706D02*
X13347Y126576D01*
X12794Y126206D01*
X12424Y125653D01*
X12294Y125000D01*
X12424Y124347D01*
X12794Y123794D01*
X13347Y123424D01*
X14000Y123294D01*
X14653Y123424D01*
X15206Y123794D01*
X15576Y124347D01*
X15706Y125000D01*
X15576Y125653D01*
X15206Y126206D01*
X14653Y126576D01*
X14000Y126706D01*
D02*
G37*
G36*
X24019Y122000D02*
X21827D01*
Y118512D01*
X22423Y118759D01*
X23084Y119266D01*
X23592Y119927D01*
X23911Y120697D01*
X24019Y121524D01*
Y122000D01*
D02*
G37*
G36*
X19827D02*
X17634D01*
Y121524D01*
X17743Y120697D01*
X18062Y119927D01*
X18569Y119266D01*
X19230Y118759D01*
X19827Y118512D01*
Y122000D01*
D02*
G37*
G36*
X32000Y120706D02*
X31347Y120576D01*
X30794Y120206D01*
X30424Y119653D01*
X30294Y119000D01*
X30424Y118347D01*
X30794Y117794D01*
X31347Y117424D01*
X32000Y117294D01*
X32653Y117424D01*
X33206Y117794D01*
X33576Y118347D01*
X33706Y119000D01*
X33576Y119653D01*
X33206Y120206D01*
X32653Y120576D01*
X32000Y120706D01*
D02*
G37*
G36*
X28882Y116323D02*
X28095D01*
Y115083D01*
X27595Y114913D01*
X27049Y115332D01*
X26453Y115579D01*
Y112567D01*
Y109555D01*
X27049Y109802D01*
X27595Y110221D01*
X27982Y110089D01*
X28095Y109998D01*
Y107236D01*
X28882D01*
Y111779D01*
Y116323D01*
D02*
G37*
G36*
X24453Y115579D02*
X23856Y115332D01*
X23195Y114824D01*
X22688Y114163D01*
X22441Y113567D01*
X24453D01*
Y115579D01*
D02*
G37*
G36*
X58500Y114706D02*
X57847Y114576D01*
X57294Y114206D01*
X56924Y113653D01*
X56794Y113000D01*
X56924Y112347D01*
X57294Y111794D01*
X57847Y111424D01*
X58500Y111294D01*
X59153Y111424D01*
X59706Y111794D01*
X60076Y112347D01*
X60206Y113000D01*
X60076Y113653D01*
X59706Y114206D01*
X59153Y114576D01*
X58500Y114706D01*
D02*
G37*
G36*
X20000D02*
X19347Y114576D01*
X18794Y114206D01*
X18424Y113653D01*
X18294Y113000D01*
X18424Y112347D01*
X18794Y111794D01*
X19347Y111424D01*
X20000Y111294D01*
X20653Y111424D01*
X21206Y111794D01*
X21576Y112347D01*
X21706Y113000D01*
X21576Y113653D01*
X21206Y114206D01*
X20653Y114576D01*
X20000Y114706D01*
D02*
G37*
G36*
X47559Y111567D02*
X45547D01*
Y109555D01*
X46144Y109802D01*
X46805Y110309D01*
X47312Y110971D01*
X47559Y111567D01*
D02*
G37*
G36*
X24453D02*
X22441D01*
X22688Y110971D01*
X23195Y110309D01*
X23856Y109802D01*
X24453Y109555D01*
Y111567D01*
D02*
G37*
G36*
X6000Y102855D02*
Y100000D01*
X8855D01*
X8851Y100032D01*
X8453Y100993D01*
X7819Y101819D01*
X6993Y102453D01*
X6032Y102851D01*
X6000Y102855D01*
D02*
G37*
G36*
X64000D02*
X63968Y102851D01*
X63007Y102453D01*
X62181Y101819D01*
X61547Y100993D01*
X61149Y100032D01*
X61145Y100000D01*
X64000D01*
Y102855D01*
D02*
G37*
G36*
X17500Y101706D02*
X16847Y101576D01*
X16294Y101206D01*
X15924Y100653D01*
X15794Y100000D01*
X15924Y99347D01*
X16294Y98794D01*
X16847Y98424D01*
X17500Y98294D01*
X18153Y98424D01*
X18706Y98794D01*
X19076Y99347D01*
X19206Y100000D01*
X19076Y100653D01*
X18706Y101206D01*
X18153Y101576D01*
X17500Y101706D01*
D02*
G37*
G36*
X12500D02*
X11847Y101576D01*
X11294Y101206D01*
X10924Y100653D01*
X10794Y100000D01*
X10924Y99347D01*
X11294Y98794D01*
X11847Y98424D01*
X12500Y98294D01*
X13153Y98424D01*
X13706Y98794D01*
X14076Y99347D01*
X14206Y100000D01*
X14076Y100653D01*
X13706Y101206D01*
X13153Y101576D01*
X12500Y101706D01*
D02*
G37*
G36*
X45000Y103772D02*
X44024Y103644D01*
X43114Y103267D01*
X42333Y102667D01*
X41733Y101886D01*
X41356Y100976D01*
X41228Y100000D01*
X41356Y99024D01*
X41733Y98114D01*
X42333Y97333D01*
X43114Y96733D01*
X44024Y96356D01*
X45000Y96228D01*
X45976Y96356D01*
X46886Y96733D01*
X47668Y97333D01*
X48267Y98114D01*
X48644Y99024D01*
X48772Y100000D01*
X48644Y100976D01*
X48267Y101886D01*
X47668Y102667D01*
X46886Y103267D01*
X45976Y103644D01*
X45000Y103772D01*
D02*
G37*
G36*
X35000D02*
X34024Y103644D01*
X33114Y103267D01*
X32333Y102667D01*
X31733Y101886D01*
X31356Y100976D01*
X31228Y100000D01*
X31356Y99024D01*
X31733Y98114D01*
X32333Y97333D01*
X33114Y96733D01*
X34024Y96356D01*
X35000Y96228D01*
X35976Y96356D01*
X36886Y96733D01*
X37668Y97333D01*
X38267Y98114D01*
X38644Y99024D01*
X38772Y100000D01*
X38644Y100976D01*
X38267Y101886D01*
X37668Y102667D01*
X36886Y103267D01*
X35976Y103644D01*
X35000Y103772D01*
D02*
G37*
G36*
X55813Y99222D02*
X55160Y99092D01*
X54606Y98722D01*
X54237Y98168D01*
X54107Y97516D01*
X54237Y96863D01*
X54606Y96309D01*
X55160Y95939D01*
X55813Y95810D01*
X56466Y95939D01*
X57019Y96309D01*
X57389Y96863D01*
X57519Y97516D01*
X57389Y98168D01*
X57019Y98722D01*
X56466Y99092D01*
X55813Y99222D01*
D02*
G37*
G36*
X8855Y98000D02*
X6000D01*
Y95145D01*
X6032Y95149D01*
X6993Y95547D01*
X7819Y96181D01*
X8453Y97007D01*
X8851Y97968D01*
X8855Y98000D01*
D02*
G37*
G36*
X64000D02*
X61145D01*
X61149Y97968D01*
X61547Y97007D01*
X62181Y96181D01*
X63007Y95547D01*
X63968Y95149D01*
X64000Y95145D01*
Y98000D01*
D02*
G37*
G36*
X42031Y88000D02*
X39669D01*
Y85244D01*
X42031D01*
Y88000D01*
D02*
G37*
G36*
X37669D02*
X35307D01*
Y85244D01*
X37669D01*
Y88000D01*
D02*
G37*
G36*
X6000Y82855D02*
Y80000D01*
X8855D01*
X8851Y80032D01*
X8453Y80993D01*
X7819Y81819D01*
X6993Y82453D01*
X6032Y82851D01*
X6000Y82855D01*
D02*
G37*
G36*
X64000D02*
X63968Y82851D01*
X63007Y82453D01*
X62181Y81819D01*
X61547Y80993D01*
X61149Y80032D01*
X61145Y80000D01*
X64000D01*
Y82855D01*
D02*
G37*
G36*
X8855Y78000D02*
X6000D01*
Y75145D01*
X6032Y75149D01*
X6993Y75547D01*
X7819Y76181D01*
X8453Y77007D01*
X8851Y77968D01*
X8855Y78000D01*
D02*
G37*
G36*
X64000D02*
X61145D01*
X61149Y77968D01*
X61547Y77007D01*
X62181Y76181D01*
X63007Y75547D01*
X63968Y75149D01*
X64000Y75145D01*
Y78000D01*
D02*
G37*
G36*
X38524Y69012D02*
X36063D01*
Y67732D01*
X38524D01*
Y69012D01*
D02*
G37*
G36*
X34063D02*
X31602D01*
Y67732D01*
X34063D01*
Y69012D01*
D02*
G37*
G36*
X21398D02*
X18937D01*
Y67732D01*
X21398D01*
Y69012D01*
D02*
G37*
G36*
X16937D02*
X14476D01*
Y67732D01*
X16937D01*
Y69012D01*
D02*
G37*
G36*
X38524Y65732D02*
X36063D01*
Y64453D01*
X38524D01*
Y65732D01*
D02*
G37*
G36*
X34063D02*
X31602D01*
Y64453D01*
X34063D01*
Y65732D01*
D02*
G37*
G36*
X21398D02*
X18937D01*
Y64453D01*
X21398D01*
Y65732D01*
D02*
G37*
G36*
X16937D02*
X14476D01*
Y64453D01*
X16937D01*
Y65732D01*
D02*
G37*
G36*
X6000Y62855D02*
Y60000D01*
X8855D01*
X8851Y60032D01*
X8453Y60993D01*
X7819Y61819D01*
X6993Y62453D01*
X6032Y62851D01*
X6000Y62855D01*
D02*
G37*
G36*
X64000D02*
X63968Y62851D01*
X63007Y62453D01*
X62181Y61819D01*
X61547Y60993D01*
X61149Y60032D01*
X61145Y60000D01*
X64000D01*
Y62855D01*
D02*
G37*
G36*
X8855Y58000D02*
X6000D01*
Y55145D01*
X6032Y55149D01*
X6993Y55547D01*
X7819Y56181D01*
X8453Y57007D01*
X8851Y57968D01*
X8855Y58000D01*
D02*
G37*
G36*
X64000D02*
X61145D01*
X61149Y57968D01*
X61547Y57007D01*
X62181Y56181D01*
X63007Y55547D01*
X63968Y55149D01*
X64000Y55145D01*
Y58000D01*
D02*
G37*
G36*
X55524Y56756D02*
X53161D01*
Y54000D01*
X55524D01*
Y56756D01*
D02*
G37*
G36*
X29779Y28325D02*
X28500D01*
Y24929D01*
X29779D01*
Y28325D01*
D02*
G37*
G36*
X26500D02*
X25221D01*
Y24929D01*
X26500D01*
Y28325D01*
D02*
G37*
G36*
X6000Y22855D02*
Y20000D01*
X8855D01*
X8851Y20032D01*
X8453Y20993D01*
X7819Y21819D01*
X6993Y22453D01*
X6032Y22851D01*
X6000Y22855D01*
D02*
G37*
G36*
X64000D02*
X63968Y22851D01*
X63007Y22453D01*
X62181Y21819D01*
X61547Y20993D01*
X61149Y20032D01*
X61145Y20000D01*
X64000D01*
Y22855D01*
D02*
G37*
G36*
X22500Y30322D02*
X21803Y30184D01*
X21211Y29789D01*
X20816Y29197D01*
X20678Y28500D01*
Y28112D01*
X20433D01*
Y19746D01*
X24567D01*
Y28112D01*
X24322D01*
Y28500D01*
X24184Y29197D01*
X23789Y29789D01*
X23197Y30184D01*
X22500Y30322D01*
D02*
G37*
G36*
X29779Y22929D02*
X28500D01*
Y19534D01*
X29779D01*
Y22929D01*
D02*
G37*
G36*
X26500D02*
X25221D01*
Y19534D01*
X26500D01*
Y22929D01*
D02*
G37*
G36*
X8855Y18000D02*
X6000D01*
Y15145D01*
X6032Y15149D01*
X6993Y15547D01*
X7819Y16181D01*
X8453Y17007D01*
X8851Y17968D01*
X8855Y18000D01*
D02*
G37*
G36*
X64000D02*
X61145D01*
X61149Y17968D01*
X61547Y17007D01*
X62181Y16181D01*
X63007Y15547D01*
X63968Y15149D01*
X64000Y15145D01*
Y18000D01*
D02*
G37*
G36*
X47000Y11772D02*
X46024Y11644D01*
X45114Y11267D01*
X44333Y10667D01*
X43733Y9886D01*
X43356Y8976D01*
X43228Y8000D01*
X43356Y7024D01*
X43733Y6114D01*
X44333Y5333D01*
X45114Y4733D01*
X46024Y4356D01*
X47000Y4228D01*
X47976Y4356D01*
X48886Y4733D01*
X49668Y5333D01*
X50267Y6114D01*
X50644Y7024D01*
X50772Y8000D01*
X50644Y8976D01*
X50267Y9886D01*
X49668Y10667D01*
X48886Y11267D01*
X47976Y11644D01*
X47000Y11772D01*
D02*
G37*
G36*
X47425Y27150D02*
X43669D01*
X39913D01*
Y24787D01*
X40126D01*
Y21057D01*
X33572Y14503D01*
X33287Y14077D01*
X33187Y13575D01*
Y11505D01*
X32614Y11267D01*
X31833Y10667D01*
X31233Y9886D01*
X30856Y8976D01*
X30728Y8000D01*
X30856Y7024D01*
X31233Y6114D01*
X31833Y5333D01*
X32614Y4733D01*
X33524Y4356D01*
X34500Y4228D01*
X35476Y4356D01*
X36386Y4733D01*
X37168Y5333D01*
X37767Y6114D01*
X38144Y7024D01*
X38272Y8000D01*
X38144Y8976D01*
X37767Y9886D01*
X37168Y10667D01*
X36386Y11267D01*
X35813Y11505D01*
Y13031D01*
X41482Y18701D01*
X47213D01*
Y24787D01*
X47425D01*
Y27150D01*
D02*
G37*
G36*
X55693Y42500D02*
X52331D01*
X48968D01*
Y39744D01*
Y37000D01*
X52331D01*
X55693D01*
Y39744D01*
Y42500D01*
D02*
G37*
%LPD*%
D14*
X70000Y120000D02*
X69952Y120980D01*
X69808Y121951D01*
X69569Y122903D01*
X69239Y123827D01*
X68819Y124714D01*
X68315Y125556D01*
X67730Y126344D01*
X67071Y127071D01*
X66344Y127730D01*
X65556Y128315D01*
X64714Y128819D01*
X63827Y129239D01*
X62903Y129569D01*
X61951Y129808D01*
X60980Y129952D01*
X60000Y130000D01*
Y0D02*
X60980Y48D01*
X61951Y192D01*
X62903Y431D01*
X63827Y761D01*
X64714Y1181D01*
X65556Y1685D01*
X66344Y2270D01*
X67071Y2929D01*
X67730Y3656D01*
X68315Y4444D01*
X68819Y5286D01*
X69239Y6173D01*
X69569Y7097D01*
X69808Y8049D01*
X69952Y9020D01*
X70000Y10000D01*
X0D02*
X48Y9020D01*
X192Y8049D01*
X431Y7097D01*
X761Y6173D01*
X1181Y5286D01*
X1685Y4444D01*
X2270Y3656D01*
X2929Y2929D01*
X3656Y2270D01*
X4444Y1685D01*
X5286Y1181D01*
X6173Y761D01*
X7097Y431D01*
X8049Y192D01*
X9020Y48D01*
X10000Y0D01*
Y130000D02*
X9020Y129952D01*
X8049Y129808D01*
X7097Y129569D01*
X6173Y129239D01*
X5286Y128819D01*
X4444Y128315D01*
X3656Y127730D01*
X2929Y127071D01*
X2270Y126344D01*
X1685Y125556D01*
X1181Y124714D01*
X761Y123827D01*
X431Y122903D01*
X192Y121951D01*
X48Y120980D01*
X0Y120000D01*
X10000Y130000D02*
X60000D01*
X70000Y10000D02*
Y120000D01*
X10000Y0D02*
X60000D01*
X0Y10000D02*
Y120000D01*
D25*
X29882Y111779D02*
D03*
X37559D02*
D03*
X35000D02*
D03*
X32441D02*
D03*
X40118D02*
D03*
D26*
X17937Y66732D02*
D03*
X35063D02*
D03*
X17937Y58268D02*
D03*
X35063D02*
D03*
D27*
X31331Y81000D02*
D03*
X22669D02*
D03*
X38669D02*
D03*
X47331D02*
D03*
X52161Y53000D02*
D03*
X43500D02*
D03*
X64331Y122000D02*
D03*
X55669D02*
D03*
X31331Y89000D02*
D03*
X22669D02*
D03*
X47331D02*
D03*
X38669D02*
D03*
X43669Y36000D02*
D03*
X52331D02*
D03*
X43669Y43500D02*
D03*
X52331D02*
D03*
D28*
X43669Y28150D02*
D03*
X52331Y21850D02*
D03*
Y28150D02*
D03*
X43669Y21850D02*
D03*
D29*
X22500Y23929D02*
D03*
X27500D02*
D03*
X32500D02*
D03*
Y46071D02*
D03*
X27500D02*
D03*
X22500D02*
D03*
X17500D02*
D03*
Y23929D02*
D03*
D30*
X38669Y80606D02*
X47276Y72000D01*
X48000D01*
X40031Y87244D02*
X40276Y87000D01*
X35063Y66732D02*
X35179Y66616D01*
X17937Y66732D02*
X18000Y66669D01*
X52331Y22350D02*
Y28650D01*
X22669Y81000D02*
Y89000D01*
X47331Y81000D02*
Y89000D01*
X38669Y80606D02*
Y81000D01*
X48000Y49000D02*
X65000D01*
X35448D02*
X48000D01*
Y62000D01*
X32500Y23929D02*
Y30000D01*
X34500Y32000D02*
X61427D01*
X32500Y30000D02*
X34500Y32000D01*
X25000Y41500D02*
X34500Y32000D01*
X25000Y41500D02*
Y58268D01*
X61427Y32000D02*
X64426Y29000D01*
X65000D01*
X25000Y58268D02*
X35063D01*
X17937D02*
X25000D01*
X39256Y55256D02*
X41638D01*
X43500Y53000D02*
Y53394D01*
X41638Y55256D02*
X43500Y53394D01*
X36244Y58268D02*
X39256Y55256D01*
X35063Y58268D02*
X36244D01*
X56500Y47500D02*
X59553Y44447D01*
X32500Y46071D02*
Y46720D01*
X33279Y47500D02*
X56500D01*
X32500Y46720D02*
X33279Y47500D01*
X34132Y50317D02*
X35448Y49000D01*
X59553Y44447D02*
Y44447D01*
Y44447D02*
X65000Y39000D01*
X29629Y50317D02*
X34132D01*
X27500Y48187D02*
X29629Y50317D01*
X27500Y46071D02*
Y48187D01*
X17545Y39000D02*
X22500Y43955D01*
X5000Y39000D02*
X17545D01*
X8081Y46071D02*
X17500D01*
X5152Y49000D02*
X8081Y46071D01*
X52331Y12669D02*
X57000Y8000D01*
X52331Y12669D02*
Y22350D01*
X43276D02*
X43669D01*
X34500Y8000D02*
Y13575D01*
X43276Y22350D01*
X17500Y15000D02*
X24500Y8000D01*
X17500Y15000D02*
Y23929D01*
X5000Y29000D02*
X14500Y19500D01*
Y8000D02*
Y19500D01*
D31*
X27000Y93000D02*
Y96876D01*
Y85724D02*
Y93000D01*
X27106Y93106D01*
X50252D01*
X54358Y89000D01*
X65000D01*
X63331Y121000D02*
X64331Y122000D01*
X60500Y121000D02*
X63331D01*
X40000Y35500D02*
X43169D01*
X31331Y88606D02*
Y89000D01*
X38669Y88606D02*
Y89000D01*
Y88606D02*
X40031Y87244D01*
X25520Y112500D02*
X29000D01*
X25453Y112567D02*
X25520Y112500D01*
X43520Y28500D02*
X43669Y28650D01*
X40000Y43500D02*
X43669D01*
X43169Y35500D02*
X43669Y36000D01*
X22500Y23929D02*
Y28500D01*
X26953Y96923D02*
Y98047D01*
Y96923D02*
X27000Y96876D01*
X25000Y100000D02*
X26953Y98047D01*
X27000Y85724D02*
X31331Y81394D01*
Y81000D02*
Y81394D01*
X40504Y114496D02*
X43291Y117283D01*
X51346D02*
X55669Y121606D01*
X43291Y117283D02*
X51346D01*
X55669Y121606D02*
Y122000D01*
D32*
X22500Y43955D02*
Y46071D01*
X22205Y45776D02*
X22500Y46071D01*
D33*
X5000Y49000D02*
X5152D01*
D34*
X44547Y112567D02*
D03*
X25453D02*
D03*
D35*
X20827Y123000D02*
D03*
X49173D02*
D03*
D36*
X65000Y99000D02*
D03*
Y49000D02*
D03*
Y39000D02*
D03*
Y89000D02*
D03*
Y79000D02*
D03*
Y69000D02*
D03*
Y59000D02*
D03*
Y29000D02*
D03*
Y19000D02*
D03*
X5000Y99000D02*
D03*
Y49000D02*
D03*
Y39000D02*
D03*
Y89000D02*
D03*
Y79000D02*
D03*
Y69000D02*
D03*
Y59000D02*
D03*
Y29000D02*
D03*
Y19000D02*
D03*
X45000Y100000D02*
D03*
X35000D02*
D03*
X48000Y72000D02*
D03*
X34500Y8000D02*
D03*
X24500D02*
D03*
X47000D02*
D03*
D37*
X65000Y109000D02*
D03*
X5000D02*
D03*
X48000Y62000D02*
D03*
D38*
X25000Y100000D02*
D03*
X14500Y8000D02*
D03*
X57000D02*
D03*
D39*
X43000Y87500D02*
D03*
Y80000D02*
D03*
X40000Y70500D02*
D03*
X18000Y62500D02*
D03*
X39000Y66500D02*
D03*
X65000Y116000D02*
D03*
X53500Y89500D02*
D03*
X30500Y96000D02*
D03*
X55813Y97516D02*
D03*
X58500Y113000D02*
D03*
X60500Y121000D02*
D03*
X58500Y104000D02*
D03*
X40000Y96000D02*
D03*
X13500Y54000D02*
D03*
X32000D02*
D03*
X35500Y39500D02*
D03*
X48000D02*
D03*
Y25000D02*
D03*
X49000Y13000D02*
D03*
X41000Y12500D02*
D03*
X11500Y34000D02*
D03*
X18000D02*
D03*
X26500D02*
D03*
X30500Y13000D02*
D03*
X23000D02*
D03*
X32000Y119000D02*
D03*
X26500Y77500D02*
D03*
X34693Y85244D02*
D03*
X15000Y91500D02*
D03*
X56000Y53000D02*
D03*
X59000Y84000D02*
D03*
X5000Y116500D02*
D03*
X15500Y108000D02*
D03*
X27500Y28500D02*
D03*
X39500D02*
D03*
X56000Y36000D02*
D03*
Y43500D02*
D03*
X22000Y75000D02*
D03*
X14000D02*
D03*
X56500Y62500D02*
D03*
X22500Y28500D02*
D03*
X40000Y35500D02*
D03*
Y43500D02*
D03*
X12500Y100000D02*
D03*
X17500D02*
D03*
X20000Y113000D02*
D03*
X14000Y125000D02*
D03*
M02*
