G04*
G04 #@! TF.GenerationSoftware,Altium Limited,Altium Designer,22.5.1 (42)*
G04*
G04 Layer_Physical_Order=3*
G04 Layer_Color=128*
%FSLAX25Y25*%
%MOIN*%
G70*
G04*
G04 #@! TF.SameCoordinates,C3C7CF66-0B5B-4541-851D-C3C27CC74C65*
G04*
G04*
G04 #@! TF.FilePolarity,Negative*
G04*
G01*
G75*
%ADD14C,0.00000*%
%ADD30C,0.01000*%
%ADD40C,0.04000*%
G04:AMPARAMS|DCode=43|XSize=95.433mil|YSize=95.433mil|CornerRadius=0mil|HoleSize=0mil|Usage=FLASHONLY|Rotation=0.000|XOffset=0mil|YOffset=0mil|HoleType=Round|Shape=Relief|Width=10mil|Gap=10mil|Entries=4|*
%AMTHD43*
7,0,0,0.09543,0.07543,0.01000,45*
%
%ADD43THD43*%
%ADD44C,0.07543*%
%ADD45C,0.04787*%
%ADD46C,0.06559*%
%ADD47O,0.06165X0.09118*%
D14*
X70000Y120000D02*
X69952Y120980D01*
X69808Y121951D01*
X69569Y122903D01*
X69239Y123827D01*
X68819Y124714D01*
X68315Y125556D01*
X67730Y126344D01*
X67071Y127071D01*
X66344Y127730D01*
X65556Y128315D01*
X64714Y128819D01*
X63827Y129239D01*
X62903Y129569D01*
X61951Y129808D01*
X60980Y129952D01*
X60000Y130000D01*
Y0D02*
X60980Y48D01*
X61951Y192D01*
X62903Y431D01*
X63827Y761D01*
X64714Y1181D01*
X65556Y1685D01*
X66344Y2270D01*
X67071Y2929D01*
X67730Y3656D01*
X68315Y4444D01*
X68819Y5286D01*
X69239Y6173D01*
X69569Y7097D01*
X69808Y8049D01*
X69952Y9020D01*
X70000Y10000D01*
X0D02*
X48Y9020D01*
X192Y8049D01*
X431Y7097D01*
X761Y6173D01*
X1181Y5286D01*
X1685Y4444D01*
X2270Y3656D01*
X2929Y2929D01*
X3656Y2270D01*
X4444Y1685D01*
X5286Y1181D01*
X6173Y761D01*
X7097Y431D01*
X8049Y192D01*
X9020Y48D01*
X10000Y0D01*
Y130000D02*
X9020Y129952D01*
X8049Y129808D01*
X7097Y129569D01*
X6173Y129239D01*
X5286Y128819D01*
X4444Y128315D01*
X3656Y127730D01*
X2929Y127071D01*
X2270Y126344D01*
X1685Y125556D01*
X1181Y124714D01*
X761Y123827D01*
X431Y122903D01*
X192Y121951D01*
X48Y120980D01*
X0Y120000D01*
X10000Y130000D02*
X60000D01*
X70000Y10000D02*
Y120000D01*
X10000Y0D02*
X60000D01*
X0Y10000D02*
Y120000D01*
D30*
X52500Y91500D02*
X70000D01*
X47500Y106500D02*
X50500Y103500D01*
Y93500D02*
Y103500D01*
Y93500D02*
X52500Y91500D01*
X0Y91000D02*
X18000D01*
X20000Y93000D01*
Y103500D01*
X23000Y106500D01*
X47500D01*
D40*
X0Y10000D02*
X48Y9020D01*
X192Y8049D01*
X431Y7097D01*
X761Y6173D01*
X1181Y5286D01*
X1685Y4444D01*
X2270Y3656D01*
X2929Y2929D01*
X3656Y2270D01*
X4444Y1685D01*
X5286Y1181D01*
X6173Y761D01*
X7097Y431D01*
X8049Y192D01*
X9020Y48D01*
X10000Y0D01*
X60000D02*
X60980Y48D01*
X61951Y192D01*
X62903Y431D01*
X63827Y761D01*
X64714Y1181D01*
X65556Y1685D01*
X66344Y2270D01*
X67071Y2929D01*
X67730Y3656D01*
X68315Y4444D01*
X68819Y5286D01*
X69239Y6173D01*
X69569Y7097D01*
X69808Y8049D01*
X69952Y9020D01*
X70000Y10000D01*
Y120000D02*
X69952Y120980D01*
X69808Y121951D01*
X69569Y122903D01*
X69239Y123827D01*
X68819Y124714D01*
X68315Y125556D01*
X67730Y126344D01*
X67071Y127071D01*
X66344Y127730D01*
X65556Y128315D01*
X64714Y128819D01*
X63827Y129239D01*
X62903Y129569D01*
X61951Y129808D01*
X60980Y129952D01*
X60000Y130000D01*
X10000D02*
X9020Y129952D01*
X8049Y129808D01*
X7097Y129569D01*
X6173Y129239D01*
X5286Y128819D01*
X4444Y128315D01*
X3656Y127730D01*
X2929Y127071D01*
X2270Y126344D01*
X1685Y125556D01*
X1181Y124714D01*
X761Y123827D01*
X431Y122903D01*
X192Y121951D01*
X48Y120980D01*
X0Y120000D01*
X10000Y0D02*
X60000D01*
X70000Y10000D02*
Y120000D01*
X10000Y130000D02*
X60000D01*
X0Y10000D02*
Y120000D01*
D43*
X65000Y109000D02*
D03*
X5000D02*
D03*
X35000Y100000D02*
D03*
X47000Y8000D02*
D03*
D44*
X65000Y99000D02*
D03*
Y49000D02*
D03*
Y39000D02*
D03*
Y89000D02*
D03*
Y79000D02*
D03*
Y69000D02*
D03*
Y59000D02*
D03*
Y29000D02*
D03*
Y19000D02*
D03*
X5000Y99000D02*
D03*
Y49000D02*
D03*
Y39000D02*
D03*
Y89000D02*
D03*
Y79000D02*
D03*
Y69000D02*
D03*
Y59000D02*
D03*
Y29000D02*
D03*
Y19000D02*
D03*
X45000Y100000D02*
D03*
X25000D02*
D03*
X48000Y62000D02*
D03*
Y72000D02*
D03*
X34500Y8000D02*
D03*
X14500D02*
D03*
X24500D02*
D03*
X57000D02*
D03*
D45*
X43000Y87500D02*
D03*
Y80000D02*
D03*
X40000Y70500D02*
D03*
X18000Y62500D02*
D03*
X39000Y66500D02*
D03*
X65000Y116000D02*
D03*
X53500Y89500D02*
D03*
X30500Y96000D02*
D03*
X58500Y104000D02*
D03*
X40000Y96000D02*
D03*
X13500Y54000D02*
D03*
X32000D02*
D03*
X35500Y39500D02*
D03*
X48000D02*
D03*
Y25000D02*
D03*
X49000Y13000D02*
D03*
X41000Y12500D02*
D03*
X11500Y34000D02*
D03*
X18000D02*
D03*
X26500D02*
D03*
X30500Y13000D02*
D03*
X23000D02*
D03*
X26500Y77500D02*
D03*
X34693Y85244D02*
D03*
X15000Y91500D02*
D03*
X56000Y53000D02*
D03*
X59000Y84000D02*
D03*
X5000Y116500D02*
D03*
X15500Y108000D02*
D03*
X27500Y28500D02*
D03*
X39500D02*
D03*
X56000Y36000D02*
D03*
Y43500D02*
D03*
X22000Y75000D02*
D03*
X14000D02*
D03*
X56500Y62500D02*
D03*
D46*
X44547Y112567D02*
D03*
X25453D02*
D03*
D47*
X20827Y123000D02*
D03*
X49173D02*
D03*
M02*
